<svg xmlns="http://www.w3.org/2000/svg" viewBox="-50 -1280 440 1320" width="440" height="1320" style="background:#fafafa">
<rect x="0" y="-1220" width="340" height="1220" fill="none" stroke="#8a5a3b" stroke-width="0.7" />
<rect x="0" y="-1220" width="340" height="1220" fill="rgba(138,90,59,0.04)" stroke="none" />
<line x1="1436.491215919005" y1="656.4912159190051" x2="1436.491215919005" y2="-1876.491215919005" stroke="rgba(138,90,59,0.3)" stroke-width="0.18" />
<line x1="1430.491215919005" y1="656.4912159190051" x2="1430.491215919005" y2="-1876.491215919005" stroke="rgba(138,90,59,0.3)" stroke-width="0.18" />
<line x1="1424.491215919005" y1="656.4912159190051" x2="1424.491215919005" y2="-1876.491215919005" stroke="rgba(138,90,59,0.3)" stroke-width="0.18" />
<line x1="1418.491215919005" y1="656.4912159190051" x2="1418.491215919005" y2="-1876.491215919005" stroke="rgba(138,90,59,0.3)" stroke-width="0.18" />
<line x1="1412.491215919005" y1="656.4912159190051" x2="1412.491215919005" y2="-1876.491215919005" stroke="rgba(138,90,59,0.3)" stroke-width="0.18" />
<line x1="1406.491215919005" y1="656.4912159190051" x2="1406.491215919005" y2="-1876.491215919005" stroke="rgba(138,90,59,0.3)" stroke-width="0.18" />
<line x1="1400.491215919005" y1="656.4912159190051" x2="1400.491215919005" y2="-1876.491215919005" stroke="rgba(138,90,59,0.3)" stroke-width="0.18" />
<line x1="1394.491215919005" y1="656.4912159190051" x2="1394.491215919005" y2="-1876.491215919005" stroke="rgba(138,90,59,0.3)" stroke-width="0.18" />
<line x1="1388.491215919005" y1="656.4912159190051" x2="1388.491215919005" y2="-1876.491215919005" stroke="rgba(138,90,59,0.3)" stroke-width="0.18" />
<line x1="1382.491215919005" y1="656.4912159190051" x2="1382.491215919005" y2="-1876.491215919005" stroke="rgba(138,90,59,0.3)" stroke-width="0.18" />
<line x1="1376.491215919005" y1="656.4912159190051" x2="1376.491215919005" y2="-1876.491215919005" stroke="rgba(138,90,59,0.3)" stroke-width="0.18" />
<line x1="1370.491215919005" y1="656.4912159190051" x2="1370.491215919005" y2="-1876.491215919005" stroke="rgba(138,90,59,0.3)" stroke-width="0.18" />
<line x1="1364.491215919005" y1="656.4912159190051" x2="1364.491215919005" y2="-1876.491215919005" stroke="rgba(138,90,59,0.3)" stroke-width="0.18" />
<line x1="1358.491215919005" y1="656.4912159190051" x2="1358.491215919005" y2="-1876.491215919005" stroke="rgba(138,90,59,0.3)" stroke-width="0.18" />
<line x1="1352.491215919005" y1="656.4912159190051" x2="1352.491215919005" y2="-1876.491215919005" stroke="rgba(138,90,59,0.3)" stroke-width="0.18" />
<line x1="1346.491215919005" y1="656.4912159190051" x2="1346.491215919005" y2="-1876.491215919005" stroke="rgba(138,90,59,0.3)" stroke-width="0.18" />
<line x1="1340.491215919005" y1="656.4912159190051" x2="1340.491215919005" y2="-1876.491215919005" stroke="rgba(138,90,59,0.3)" stroke-width="0.18" />
<line x1="1334.491215919005" y1="656.4912159190051" x2="1334.491215919005" y2="-1876.491215919005" stroke="rgba(138,90,59,0.3)" stroke-width="0.18" />
<line x1="1328.491215919005" y1="656.4912159190051" x2="1328.491215919005" y2="-1876.491215919005" stroke="rgba(138,90,59,0.3)" stroke-width="0.18" />
<line x1="1322.491215919005" y1="656.4912159190051" x2="1322.491215919005" y2="-1876.491215919005" stroke="rgba(138,90,59,0.3)" stroke-width="0.18" />
<line x1="1316.491215919005" y1="656.4912159190051" x2="1316.491215919005" y2="-1876.491215919005" stroke="rgba(138,90,59,0.3)" stroke-width="0.18" />
<line x1="1310.491215919005" y1="656.4912159190051" x2="1310.491215919005" y2="-1876.491215919005" stroke="rgba(138,90,59,0.3)" stroke-width="0.18" />
<line x1="1304.491215919005" y1="656.4912159190051" x2="1304.491215919005" y2="-1876.491215919005" stroke="rgba(138,90,59,0.3)" stroke-width="0.18" />
<line x1="1298.491215919005" y1="656.4912159190051" x2="1298.491215919005" y2="-1876.491215919005" stroke="rgba(138,90,59,0.3)" stroke-width="0.18" />
<line x1="1292.491215919005" y1="656.4912159190051" x2="1292.491215919005" y2="-1876.491215919005" stroke="rgba(138,90,59,0.3)" stroke-width="0.18" />
<line x1="1286.491215919005" y1="656.4912159190051" x2="1286.491215919005" y2="-1876.491215919005" stroke="rgba(138,90,59,0.3)" stroke-width="0.18" />
<line x1="1280.491215919005" y1="656.4912159190051" x2="1280.491215919005" y2="-1876.491215919005" stroke="rgba(138,90,59,0.3)" stroke-width="0.18" />
<line x1="1274.491215919005" y1="656.4912159190051" x2="1274.491215919005" y2="-1876.491215919005" stroke="rgba(138,90,59,0.3)" stroke-width="0.18" />
<line x1="1268.491215919005" y1="656.4912159190051" x2="1268.491215919005" y2="-1876.491215919005" stroke="rgba(138,90,59,0.3)" stroke-width="0.18" />
<line x1="1262.491215919005" y1="656.4912159190051" x2="1262.491215919005" y2="-1876.491215919005" stroke="rgba(138,90,59,0.3)" stroke-width="0.18" />
<line x1="1256.491215919005" y1="656.4912159190051" x2="1256.491215919005" y2="-1876.491215919005" stroke="rgba(138,90,59,0.3)" stroke-width="0.18" />
<line x1="1250.491215919005" y1="656.4912159190051" x2="1250.491215919005" y2="-1876.491215919005" stroke="rgba(138,90,59,0.3)" stroke-width="0.18" />
<line x1="1244.491215919005" y1="656.4912159190051" x2="1244.491215919005" y2="-1876.491215919005" stroke="rgba(138,90,59,0.3)" stroke-width="0.18" />
<line x1="1238.491215919005" y1="656.4912159190051" x2="1238.491215919005" y2="-1876.491215919005" stroke="rgba(138,90,59,0.3)" stroke-width="0.18" />
<line x1="1232.491215919005" y1="656.4912159190051" x2="1232.491215919005" y2="-1876.491215919005" stroke="rgba(138,90,59,0.3)" stroke-width="0.18" />
<line x1="1226.491215919005" y1="656.4912159190051" x2="1226.491215919005" y2="-1876.491215919005" stroke="rgba(138,90,59,0.3)" stroke-width="0.18" />
<line x1="1220.491215919005" y1="656.4912159190051" x2="1220.491215919005" y2="-1876.491215919005" stroke="rgba(138,90,59,0.3)" stroke-width="0.18" />
<line x1="1214.491215919005" y1="656.4912159190051" x2="1214.491215919005" y2="-1876.491215919005" stroke="rgba(138,90,59,0.3)" stroke-width="0.18" />
<line x1="1208.491215919005" y1="656.4912159190051" x2="1208.491215919005" y2="-1876.491215919005" stroke="rgba(138,90,59,0.3)" stroke-width="0.18" />
<line x1="1202.491215919005" y1="656.4912159190051" x2="1202.491215919005" y2="-1876.491215919005" stroke="rgba(138,90,59,0.3)" stroke-width="0.18" />
<line x1="1196.491215919005" y1="656.4912159190051" x2="1196.491215919005" y2="-1876.491215919005" stroke="rgba(138,90,59,0.3)" stroke-width="0.18" />
<line x1="1190.491215919005" y1="656.4912159190051" x2="1190.491215919005" y2="-1876.491215919005" stroke="rgba(138,90,59,0.3)" stroke-width="0.18" />
<line x1="1184.491215919005" y1="656.4912159190051" x2="1184.491215919005" y2="-1876.491215919005" stroke="rgba(138,90,59,0.3)" stroke-width="0.18" />
<line x1="1178.491215919005" y1="656.4912159190051" x2="1178.491215919005" y2="-1876.491215919005" stroke="rgba(138,90,59,0.3)" stroke-width="0.18" />
<line x1="1172.491215919005" y1="656.4912159190051" x2="1172.491215919005" y2="-1876.491215919005" stroke="rgba(138,90,59,0.3)" stroke-width="0.18" />
<line x1="1166.491215919005" y1="656.4912159190051" x2="1166.491215919005" y2="-1876.491215919005" stroke="rgba(138,90,59,0.3)" stroke-width="0.18" />
<line x1="1160.491215919005" y1="656.4912159190051" x2="1160.491215919005" y2="-1876.491215919005" stroke="rgba(138,90,59,0.3)" stroke-width="0.18" />
<line x1="1154.491215919005" y1="656.4912159190051" x2="1154.491215919005" y2="-1876.491215919005" stroke="rgba(138,90,59,0.3)" stroke-width="0.18" />
<line x1="1148.491215919005" y1="656.4912159190051" x2="1148.491215919005" y2="-1876.491215919005" stroke="rgba(138,90,59,0.3)" stroke-width="0.18" />
<line x1="1142.491215919005" y1="656.4912159190051" x2="1142.491215919005" y2="-1876.491215919005" stroke="rgba(138,90,59,0.3)" stroke-width="0.18" />
<line x1="1136.491215919005" y1="656.4912159190051" x2="1136.491215919005" y2="-1876.491215919005" stroke="rgba(138,90,59,0.3)" stroke-width="0.18" />
<line x1="1130.491215919005" y1="656.4912159190051" x2="1130.491215919005" y2="-1876.491215919005" stroke="rgba(138,90,59,0.3)" stroke-width="0.18" />
<line x1="1124.491215919005" y1="656.4912159190051" x2="1124.491215919005" y2="-1876.491215919005" stroke="rgba(138,90,59,0.3)" stroke-width="0.18" />
<line x1="1118.491215919005" y1="656.4912159190051" x2="1118.491215919005" y2="-1876.491215919005" stroke="rgba(138,90,59,0.3)" stroke-width="0.18" />
<line x1="1112.491215919005" y1="656.4912159190051" x2="1112.491215919005" y2="-1876.491215919005" stroke="rgba(138,90,59,0.3)" stroke-width="0.18" />
<line x1="1106.491215919005" y1="656.4912159190051" x2="1106.491215919005" y2="-1876.491215919005" stroke="rgba(138,90,59,0.3)" stroke-width="0.18" />
<line x1="1100.491215919005" y1="656.4912159190051" x2="1100.491215919005" y2="-1876.491215919005" stroke="rgba(138,90,59,0.3)" stroke-width="0.18" />
<line x1="1094.491215919005" y1="656.4912159190051" x2="1094.491215919005" y2="-1876.491215919005" stroke="rgba(138,90,59,0.3)" stroke-width="0.18" />
<line x1="1088.491215919005" y1="656.4912159190051" x2="1088.491215919005" y2="-1876.491215919005" stroke="rgba(138,90,59,0.3)" stroke-width="0.18" />
<line x1="1082.491215919005" y1="656.4912159190051" x2="1082.491215919005" y2="-1876.491215919005" stroke="rgba(138,90,59,0.3)" stroke-width="0.18" />
<line x1="1076.491215919005" y1="656.4912159190051" x2="1076.491215919005" y2="-1876.491215919005" stroke="rgba(138,90,59,0.3)" stroke-width="0.18" />
<line x1="1070.491215919005" y1="656.4912159190051" x2="1070.491215919005" y2="-1876.491215919005" stroke="rgba(138,90,59,0.3)" stroke-width="0.18" />
<line x1="1064.491215919005" y1="656.4912159190051" x2="1064.491215919005" y2="-1876.491215919005" stroke="rgba(138,90,59,0.3)" stroke-width="0.18" />
<line x1="1058.491215919005" y1="656.4912159190051" x2="1058.491215919005" y2="-1876.491215919005" stroke="rgba(138,90,59,0.3)" stroke-width="0.18" />
<line x1="1052.491215919005" y1="656.4912159190051" x2="1052.491215919005" y2="-1876.491215919005" stroke="rgba(138,90,59,0.3)" stroke-width="0.18" />
<line x1="1046.491215919005" y1="656.4912159190051" x2="1046.491215919005" y2="-1876.491215919005" stroke="rgba(138,90,59,0.3)" stroke-width="0.18" />
<line x1="1040.491215919005" y1="656.4912159190051" x2="1040.491215919005" y2="-1876.491215919005" stroke="rgba(138,90,59,0.3)" stroke-width="0.18" />
<line x1="1034.491215919005" y1="656.4912159190051" x2="1034.491215919005" y2="-1876.491215919005" stroke="rgba(138,90,59,0.3)" stroke-width="0.18" />
<line x1="1028.491215919005" y1="656.4912159190051" x2="1028.491215919005" y2="-1876.491215919005" stroke="rgba(138,90,59,0.3)" stroke-width="0.18" />
<line x1="1022.4912159190051" y1="656.4912159190051" x2="1022.4912159190051" y2="-1876.491215919005" stroke="rgba(138,90,59,0.3)" stroke-width="0.18" />
<line x1="1016.4912159190051" y1="656.4912159190051" x2="1016.4912159190051" y2="-1876.491215919005" stroke="rgba(138,90,59,0.3)" stroke-width="0.18" />
<line x1="1010.4912159190051" y1="656.4912159190051" x2="1010.4912159190051" y2="-1876.491215919005" stroke="rgba(138,90,59,0.3)" stroke-width="0.18" />
<line x1="1004.4912159190051" y1="656.4912159190051" x2="1004.4912159190051" y2="-1876.491215919005" stroke="rgba(138,90,59,0.3)" stroke-width="0.18" />
<line x1="998.4912159190051" y1="656.4912159190051" x2="998.4912159190051" y2="-1876.491215919005" stroke="rgba(138,90,59,0.3)" stroke-width="0.18" />
<line x1="992.4912159190051" y1="656.4912159190051" x2="992.4912159190051" y2="-1876.491215919005" stroke="rgba(138,90,59,0.3)" stroke-width="0.18" />
<line x1="986.4912159190051" y1="656.4912159190051" x2="986.4912159190051" y2="-1876.491215919005" stroke="rgba(138,90,59,0.3)" stroke-width="0.18" />
<line x1="980.4912159190051" y1="656.4912159190051" x2="980.4912159190051" y2="-1876.491215919005" stroke="rgba(138,90,59,0.3)" stroke-width="0.18" />
<line x1="974.4912159190051" y1="656.4912159190051" x2="974.4912159190051" y2="-1876.491215919005" stroke="rgba(138,90,59,0.3)" stroke-width="0.18" />
<line x1="968.4912159190051" y1="656.4912159190051" x2="968.4912159190051" y2="-1876.491215919005" stroke="rgba(138,90,59,0.3)" stroke-width="0.18" />
<line x1="962.4912159190051" y1="656.4912159190051" x2="962.4912159190051" y2="-1876.491215919005" stroke="rgba(138,90,59,0.3)" stroke-width="0.18" />
<line x1="956.4912159190051" y1="656.4912159190051" x2="956.4912159190051" y2="-1876.491215919005" stroke="rgba(138,90,59,0.3)" stroke-width="0.18" />
<line x1="950.4912159190051" y1="656.4912159190051" x2="950.4912159190051" y2="-1876.491215919005" stroke="rgba(138,90,59,0.3)" stroke-width="0.18" />
<line x1="944.4912159190051" y1="656.4912159190051" x2="944.4912159190051" y2="-1876.491215919005" stroke="rgba(138,90,59,0.3)" stroke-width="0.18" />
<line x1="938.4912159190051" y1="656.4912159190051" x2="938.4912159190051" y2="-1876.491215919005" stroke="rgba(138,90,59,0.3)" stroke-width="0.18" />
<line x1="932.4912159190051" y1="656.4912159190051" x2="932.4912159190051" y2="-1876.491215919005" stroke="rgba(138,90,59,0.3)" stroke-width="0.18" />
<line x1="926.4912159190051" y1="656.4912159190051" x2="926.4912159190051" y2="-1876.491215919005" stroke="rgba(138,90,59,0.3)" stroke-width="0.18" />
<line x1="920.4912159190051" y1="656.4912159190051" x2="920.4912159190051" y2="-1876.491215919005" stroke="rgba(138,90,59,0.3)" stroke-width="0.18" />
<line x1="914.4912159190051" y1="656.4912159190051" x2="914.4912159190051" y2="-1876.491215919005" stroke="rgba(138,90,59,0.3)" stroke-width="0.18" />
<line x1="908.4912159190051" y1="656.4912159190051" x2="908.4912159190051" y2="-1876.491215919005" stroke="rgba(138,90,59,0.3)" stroke-width="0.18" />
<line x1="902.4912159190051" y1="656.4912159190051" x2="902.4912159190051" y2="-1876.491215919005" stroke="rgba(138,90,59,0.3)" stroke-width="0.18" />
<line x1="896.4912159190051" y1="656.4912159190051" x2="896.4912159190051" y2="-1876.491215919005" stroke="rgba(138,90,59,0.3)" stroke-width="0.18" />
<line x1="890.4912159190051" y1="656.4912159190051" x2="890.4912159190051" y2="-1876.491215919005" stroke="rgba(138,90,59,0.3)" stroke-width="0.18" />
<line x1="884.4912159190051" y1="656.4912159190051" x2="884.4912159190051" y2="-1876.491215919005" stroke="rgba(138,90,59,0.3)" stroke-width="0.18" />
<line x1="878.4912159190051" y1="656.4912159190051" x2="878.4912159190051" y2="-1876.491215919005" stroke="rgba(138,90,59,0.3)" stroke-width="0.18" />
<line x1="872.4912159190051" y1="656.4912159190051" x2="872.4912159190051" y2="-1876.491215919005" stroke="rgba(138,90,59,0.3)" stroke-width="0.18" />
<line x1="866.4912159190051" y1="656.4912159190051" x2="866.4912159190051" y2="-1876.491215919005" stroke="rgba(138,90,59,0.3)" stroke-width="0.18" />
<line x1="860.4912159190051" y1="656.4912159190051" x2="860.4912159190051" y2="-1876.491215919005" stroke="rgba(138,90,59,0.3)" stroke-width="0.18" />
<line x1="854.4912159190051" y1="656.4912159190051" x2="854.4912159190051" y2="-1876.491215919005" stroke="rgba(138,90,59,0.3)" stroke-width="0.18" />
<line x1="848.4912159190051" y1="656.4912159190051" x2="848.4912159190051" y2="-1876.491215919005" stroke="rgba(138,90,59,0.3)" stroke-width="0.18" />
<line x1="842.4912159190051" y1="656.4912159190051" x2="842.4912159190051" y2="-1876.491215919005" stroke="rgba(138,90,59,0.3)" stroke-width="0.18" />
<line x1="836.4912159190051" y1="656.4912159190051" x2="836.4912159190051" y2="-1876.491215919005" stroke="rgba(138,90,59,0.3)" stroke-width="0.18" />
<line x1="830.4912159190051" y1="656.4912159190051" x2="830.4912159190051" y2="-1876.491215919005" stroke="rgba(138,90,59,0.3)" stroke-width="0.18" />
<line x1="824.4912159190051" y1="656.4912159190051" x2="824.4912159190051" y2="-1876.491215919005" stroke="rgba(138,90,59,0.3)" stroke-width="0.18" />
<line x1="818.4912159190051" y1="656.4912159190051" x2="818.4912159190051" y2="-1876.491215919005" stroke="rgba(138,90,59,0.3)" stroke-width="0.18" />
<line x1="812.4912159190051" y1="656.4912159190051" x2="812.4912159190051" y2="-1876.491215919005" stroke="rgba(138,90,59,0.3)" stroke-width="0.18" />
<line x1="806.4912159190051" y1="656.4912159190051" x2="806.4912159190051" y2="-1876.491215919005" stroke="rgba(138,90,59,0.3)" stroke-width="0.18" />
<line x1="800.4912159190051" y1="656.4912159190051" x2="800.4912159190051" y2="-1876.491215919005" stroke="rgba(138,90,59,0.3)" stroke-width="0.18" />
<line x1="794.4912159190051" y1="656.4912159190051" x2="794.4912159190051" y2="-1876.491215919005" stroke="rgba(138,90,59,0.3)" stroke-width="0.18" />
<line x1="788.4912159190051" y1="656.4912159190051" x2="788.4912159190051" y2="-1876.491215919005" stroke="rgba(138,90,59,0.3)" stroke-width="0.18" />
<line x1="782.4912159190051" y1="656.4912159190051" x2="782.4912159190051" y2="-1876.491215919005" stroke="rgba(138,90,59,0.3)" stroke-width="0.18" />
<line x1="776.4912159190051" y1="656.4912159190051" x2="776.4912159190051" y2="-1876.491215919005" stroke="rgba(138,90,59,0.3)" stroke-width="0.18" />
<line x1="770.4912159190051" y1="656.4912159190051" x2="770.4912159190051" y2="-1876.491215919005" stroke="rgba(138,90,59,0.3)" stroke-width="0.18" />
<line x1="764.4912159190051" y1="656.4912159190051" x2="764.4912159190051" y2="-1876.491215919005" stroke="rgba(138,90,59,0.3)" stroke-width="0.18" />
<line x1="758.4912159190051" y1="656.4912159190051" x2="758.4912159190051" y2="-1876.491215919005" stroke="rgba(138,90,59,0.3)" stroke-width="0.18" />
<line x1="752.4912159190051" y1="656.4912159190051" x2="752.4912159190051" y2="-1876.491215919005" stroke="rgba(138,90,59,0.3)" stroke-width="0.18" />
<line x1="746.4912159190051" y1="656.4912159190051" x2="746.4912159190051" y2="-1876.491215919005" stroke="rgba(138,90,59,0.3)" stroke-width="0.18" />
<line x1="740.4912159190051" y1="656.4912159190051" x2="740.4912159190051" y2="-1876.491215919005" stroke="rgba(138,90,59,0.3)" stroke-width="0.18" />
<line x1="734.4912159190051" y1="656.4912159190051" x2="734.4912159190051" y2="-1876.491215919005" stroke="rgba(138,90,59,0.3)" stroke-width="0.18" />
<line x1="728.4912159190051" y1="656.4912159190051" x2="728.4912159190051" y2="-1876.491215919005" stroke="rgba(138,90,59,0.3)" stroke-width="0.18" />
<line x1="722.4912159190051" y1="656.4912159190051" x2="722.4912159190051" y2="-1876.491215919005" stroke="rgba(138,90,59,0.3)" stroke-width="0.18" />
<line x1="716.4912159190051" y1="656.4912159190051" x2="716.4912159190051" y2="-1876.491215919005" stroke="rgba(138,90,59,0.3)" stroke-width="0.18" />
<line x1="710.4912159190051" y1="656.4912159190051" x2="710.4912159190051" y2="-1876.491215919005" stroke="rgba(138,90,59,0.3)" stroke-width="0.18" />
<line x1="704.4912159190051" y1="656.4912159190051" x2="704.4912159190051" y2="-1876.491215919005" stroke="rgba(138,90,59,0.3)" stroke-width="0.18" />
<line x1="698.4912159190051" y1="656.4912159190051" x2="698.4912159190051" y2="-1876.491215919005" stroke="rgba(138,90,59,0.3)" stroke-width="0.18" />
<line x1="692.4912159190051" y1="656.4912159190051" x2="692.4912159190051" y2="-1876.491215919005" stroke="rgba(138,90,59,0.3)" stroke-width="0.18" />
<line x1="686.4912159190051" y1="656.4912159190051" x2="686.4912159190051" y2="-1876.491215919005" stroke="rgba(138,90,59,0.3)" stroke-width="0.18" />
<line x1="680.4912159190051" y1="656.4912159190051" x2="680.4912159190051" y2="-1876.491215919005" stroke="rgba(138,90,59,0.3)" stroke-width="0.18" />
<line x1="674.4912159190051" y1="656.4912159190051" x2="674.4912159190051" y2="-1876.491215919005" stroke="rgba(138,90,59,0.3)" stroke-width="0.18" />
<line x1="668.4912159190051" y1="656.4912159190051" x2="668.4912159190051" y2="-1876.491215919005" stroke="rgba(138,90,59,0.3)" stroke-width="0.18" />
<line x1="662.4912159190051" y1="656.4912159190051" x2="662.4912159190051" y2="-1876.491215919005" stroke="rgba(138,90,59,0.3)" stroke-width="0.18" />
<line x1="656.4912159190051" y1="656.4912159190051" x2="656.4912159190051" y2="-1876.491215919005" stroke="rgba(138,90,59,0.3)" stroke-width="0.18" />
<line x1="650.4912159190051" y1="656.4912159190051" x2="650.4912159190051" y2="-1876.491215919005" stroke="rgba(138,90,59,0.3)" stroke-width="0.18" />
<line x1="644.4912159190051" y1="656.4912159190051" x2="644.4912159190051" y2="-1876.491215919005" stroke="rgba(138,90,59,0.3)" stroke-width="0.18" />
<line x1="638.4912159190051" y1="656.4912159190051" x2="638.4912159190051" y2="-1876.491215919005" stroke="rgba(138,90,59,0.3)" stroke-width="0.18" />
<line x1="632.4912159190051" y1="656.4912159190051" x2="632.4912159190051" y2="-1876.491215919005" stroke="rgba(138,90,59,0.3)" stroke-width="0.18" />
<line x1="626.4912159190051" y1="656.4912159190051" x2="626.4912159190051" y2="-1876.491215919005" stroke="rgba(138,90,59,0.3)" stroke-width="0.18" />
<line x1="620.4912159190051" y1="656.4912159190051" x2="620.4912159190051" y2="-1876.491215919005" stroke="rgba(138,90,59,0.3)" stroke-width="0.18" />
<line x1="614.4912159190051" y1="656.4912159190051" x2="614.4912159190051" y2="-1876.491215919005" stroke="rgba(138,90,59,0.3)" stroke-width="0.18" />
<line x1="608.4912159190051" y1="656.4912159190051" x2="608.4912159190051" y2="-1876.491215919005" stroke="rgba(138,90,59,0.3)" stroke-width="0.18" />
<line x1="602.4912159190051" y1="656.4912159190051" x2="602.4912159190051" y2="-1876.491215919005" stroke="rgba(138,90,59,0.3)" stroke-width="0.18" />
<line x1="596.4912159190051" y1="656.4912159190051" x2="596.4912159190051" y2="-1876.491215919005" stroke="rgba(138,90,59,0.3)" stroke-width="0.18" />
<line x1="590.4912159190051" y1="656.4912159190051" x2="590.4912159190051" y2="-1876.491215919005" stroke="rgba(138,90,59,0.3)" stroke-width="0.18" />
<line x1="584.4912159190051" y1="656.4912159190051" x2="584.4912159190051" y2="-1876.491215919005" stroke="rgba(138,90,59,0.3)" stroke-width="0.18" />
<line x1="578.4912159190051" y1="656.4912159190051" x2="578.4912159190051" y2="-1876.491215919005" stroke="rgba(138,90,59,0.3)" stroke-width="0.18" />
<line x1="572.4912159190051" y1="656.4912159190051" x2="572.4912159190051" y2="-1876.491215919005" stroke="rgba(138,90,59,0.3)" stroke-width="0.18" />
<line x1="566.4912159190051" y1="656.4912159190051" x2="566.4912159190051" y2="-1876.491215919005" stroke="rgba(138,90,59,0.3)" stroke-width="0.18" />
<line x1="560.4912159190051" y1="656.4912159190051" x2="560.4912159190051" y2="-1876.491215919005" stroke="rgba(138,90,59,0.3)" stroke-width="0.18" />
<line x1="554.4912159190051" y1="656.4912159190051" x2="554.4912159190051" y2="-1876.491215919005" stroke="rgba(138,90,59,0.3)" stroke-width="0.18" />
<line x1="548.4912159190051" y1="656.4912159190051" x2="548.4912159190051" y2="-1876.491215919005" stroke="rgba(138,90,59,0.3)" stroke-width="0.18" />
<line x1="542.4912159190051" y1="656.4912159190051" x2="542.4912159190051" y2="-1876.491215919005" stroke="rgba(138,90,59,0.3)" stroke-width="0.18" />
<line x1="536.4912159190051" y1="656.4912159190051" x2="536.4912159190051" y2="-1876.491215919005" stroke="rgba(138,90,59,0.3)" stroke-width="0.18" />
<line x1="530.4912159190051" y1="656.4912159190051" x2="530.4912159190051" y2="-1876.491215919005" stroke="rgba(138,90,59,0.3)" stroke-width="0.18" />
<line x1="524.4912159190051" y1="656.4912159190051" x2="524.4912159190051" y2="-1876.491215919005" stroke="rgba(138,90,59,0.3)" stroke-width="0.18" />
<line x1="518.4912159190051" y1="656.4912159190051" x2="518.4912159190051" y2="-1876.491215919005" stroke="rgba(138,90,59,0.3)" stroke-width="0.18" />
<line x1="512.4912159190051" y1="656.4912159190051" x2="512.4912159190051" y2="-1876.491215919005" stroke="rgba(138,90,59,0.3)" stroke-width="0.18" />
<line x1="506.49121591900507" y1="656.4912159190051" x2="506.49121591900507" y2="-1876.491215919005" stroke="rgba(138,90,59,0.3)" stroke-width="0.18" />
<line x1="500.49121591900507" y1="656.4912159190051" x2="500.49121591900507" y2="-1876.491215919005" stroke="rgba(138,90,59,0.3)" stroke-width="0.18" />
<line x1="494.49121591900507" y1="656.4912159190051" x2="494.49121591900507" y2="-1876.491215919005" stroke="rgba(138,90,59,0.3)" stroke-width="0.18" />
<line x1="488.49121591900507" y1="656.4912159190051" x2="488.49121591900507" y2="-1876.491215919005" stroke="rgba(138,90,59,0.3)" stroke-width="0.18" />
<line x1="482.49121591900507" y1="656.4912159190051" x2="482.49121591900507" y2="-1876.491215919005" stroke="rgba(138,90,59,0.3)" stroke-width="0.18" />
<line x1="476.49121591900507" y1="656.4912159190051" x2="476.49121591900507" y2="-1876.491215919005" stroke="rgba(138,90,59,0.3)" stroke-width="0.18" />
<line x1="470.49121591900507" y1="656.4912159190051" x2="470.49121591900507" y2="-1876.491215919005" stroke="rgba(138,90,59,0.3)" stroke-width="0.18" />
<line x1="464.49121591900507" y1="656.4912159190051" x2="464.49121591900507" y2="-1876.491215919005" stroke="rgba(138,90,59,0.3)" stroke-width="0.18" />
<line x1="458.49121591900507" y1="656.4912159190051" x2="458.49121591900507" y2="-1876.491215919005" stroke="rgba(138,90,59,0.3)" stroke-width="0.18" />
<line x1="452.49121591900507" y1="656.4912159190051" x2="452.49121591900507" y2="-1876.491215919005" stroke="rgba(138,90,59,0.3)" stroke-width="0.18" />
<line x1="446.49121591900507" y1="656.4912159190051" x2="446.49121591900507" y2="-1876.491215919005" stroke="rgba(138,90,59,0.3)" stroke-width="0.18" />
<line x1="440.49121591900507" y1="656.4912159190051" x2="440.49121591900507" y2="-1876.491215919005" stroke="rgba(138,90,59,0.3)" stroke-width="0.18" />
<line x1="434.49121591900507" y1="656.4912159190051" x2="434.49121591900507" y2="-1876.491215919005" stroke="rgba(138,90,59,0.3)" stroke-width="0.18" />
<line x1="428.49121591900507" y1="656.4912159190051" x2="428.49121591900507" y2="-1876.491215919005" stroke="rgba(138,90,59,0.3)" stroke-width="0.18" />
<line x1="422.49121591900507" y1="656.4912159190051" x2="422.49121591900507" y2="-1876.491215919005" stroke="rgba(138,90,59,0.3)" stroke-width="0.18" />
<line x1="416.49121591900507" y1="656.4912159190051" x2="416.49121591900507" y2="-1876.491215919005" stroke="rgba(138,90,59,0.3)" stroke-width="0.18" />
<line x1="410.49121591900507" y1="656.4912159190051" x2="410.49121591900507" y2="-1876.491215919005" stroke="rgba(138,90,59,0.3)" stroke-width="0.18" />
<line x1="404.49121591900507" y1="656.4912159190051" x2="404.49121591900507" y2="-1876.491215919005" stroke="rgba(138,90,59,0.3)" stroke-width="0.18" />
<line x1="398.49121591900507" y1="656.4912159190051" x2="398.49121591900507" y2="-1876.491215919005" stroke="rgba(138,90,59,0.3)" stroke-width="0.18" />
<line x1="392.49121591900507" y1="656.4912159190051" x2="392.49121591900507" y2="-1876.491215919005" stroke="rgba(138,90,59,0.3)" stroke-width="0.18" />
<line x1="386.49121591900507" y1="656.4912159190051" x2="386.49121591900507" y2="-1876.491215919005" stroke="rgba(138,90,59,0.3)" stroke-width="0.18" />
<line x1="380.49121591900507" y1="656.4912159190051" x2="380.49121591900507" y2="-1876.491215919005" stroke="rgba(138,90,59,0.3)" stroke-width="0.18" />
<line x1="374.49121591900507" y1="656.4912159190051" x2="374.49121591900507" y2="-1876.491215919005" stroke="rgba(138,90,59,0.3)" stroke-width="0.18" />
<line x1="368.49121591900507" y1="656.4912159190051" x2="368.49121591900507" y2="-1876.491215919005" stroke="rgba(138,90,59,0.3)" stroke-width="0.18" />
<line x1="362.49121591900507" y1="656.4912159190051" x2="362.49121591900507" y2="-1876.491215919005" stroke="rgba(138,90,59,0.3)" stroke-width="0.18" />
<line x1="356.49121591900507" y1="656.4912159190051" x2="356.49121591900507" y2="-1876.491215919005" stroke="rgba(138,90,59,0.3)" stroke-width="0.18" />
<line x1="350.49121591900507" y1="656.4912159190051" x2="350.49121591900507" y2="-1876.491215919005" stroke="rgba(138,90,59,0.3)" stroke-width="0.18" />
<line x1="344.49121591900507" y1="656.4912159190051" x2="344.49121591900507" y2="-1876.491215919005" stroke="rgba(138,90,59,0.3)" stroke-width="0.18" />
<line x1="338.49121591900507" y1="656.4912159190051" x2="338.49121591900507" y2="-1876.491215919005" stroke="rgba(138,90,59,0.3)" stroke-width="0.18" />
<line x1="332.49121591900507" y1="656.4912159190051" x2="332.49121591900507" y2="-1876.491215919005" stroke="rgba(138,90,59,0.3)" stroke-width="0.18" />
<line x1="326.49121591900507" y1="656.4912159190051" x2="326.49121591900507" y2="-1876.491215919005" stroke="rgba(138,90,59,0.3)" stroke-width="0.18" />
<line x1="320.49121591900507" y1="656.4912159190051" x2="320.49121591900507" y2="-1876.491215919005" stroke="rgba(138,90,59,0.3)" stroke-width="0.18" />
<line x1="314.49121591900507" y1="656.4912159190051" x2="314.49121591900507" y2="-1876.491215919005" stroke="rgba(138,90,59,0.3)" stroke-width="0.18" />
<line x1="308.49121591900507" y1="656.4912159190051" x2="308.49121591900507" y2="-1876.491215919005" stroke="rgba(138,90,59,0.3)" stroke-width="0.18" />
<line x1="302.49121591900507" y1="656.4912159190051" x2="302.49121591900507" y2="-1876.491215919005" stroke="rgba(138,90,59,0.3)" stroke-width="0.18" />
<line x1="296.49121591900507" y1="656.4912159190051" x2="296.49121591900507" y2="-1876.491215919005" stroke="rgba(138,90,59,0.3)" stroke-width="0.18" />
<line x1="290.49121591900507" y1="656.4912159190051" x2="290.49121591900507" y2="-1876.491215919005" stroke="rgba(138,90,59,0.3)" stroke-width="0.18" />
<line x1="284.49121591900507" y1="656.4912159190051" x2="284.49121591900507" y2="-1876.491215919005" stroke="rgba(138,90,59,0.3)" stroke-width="0.18" />
<line x1="278.49121591900507" y1="656.4912159190051" x2="278.49121591900507" y2="-1876.491215919005" stroke="rgba(138,90,59,0.3)" stroke-width="0.18" />
<line x1="272.49121591900507" y1="656.4912159190051" x2="272.49121591900507" y2="-1876.491215919005" stroke="rgba(138,90,59,0.3)" stroke-width="0.18" />
<line x1="266.49121591900507" y1="656.4912159190051" x2="266.49121591900507" y2="-1876.491215919005" stroke="rgba(138,90,59,0.3)" stroke-width="0.18" />
<line x1="260.49121591900507" y1="656.4912159190051" x2="260.49121591900507" y2="-1876.491215919005" stroke="rgba(138,90,59,0.3)" stroke-width="0.18" />
<line x1="254.49121591900507" y1="656.4912159190051" x2="254.49121591900507" y2="-1876.491215919005" stroke="rgba(138,90,59,0.3)" stroke-width="0.18" />
<line x1="248.49121591900507" y1="656.4912159190051" x2="248.49121591900507" y2="-1876.491215919005" stroke="rgba(138,90,59,0.3)" stroke-width="0.18" />
<line x1="242.49121591900507" y1="656.4912159190051" x2="242.49121591900507" y2="-1876.491215919005" stroke="rgba(138,90,59,0.3)" stroke-width="0.18" />
<line x1="236.49121591900507" y1="656.4912159190051" x2="236.49121591900507" y2="-1876.491215919005" stroke="rgba(138,90,59,0.3)" stroke-width="0.18" />
<line x1="230.49121591900507" y1="656.4912159190051" x2="230.49121591900507" y2="-1876.491215919005" stroke="rgba(138,90,59,0.3)" stroke-width="0.18" />
<line x1="224.49121591900507" y1="656.4912159190051" x2="224.49121591900507" y2="-1876.491215919005" stroke="rgba(138,90,59,0.3)" stroke-width="0.18" />
<line x1="218.49121591900507" y1="656.4912159190051" x2="218.49121591900507" y2="-1876.491215919005" stroke="rgba(138,90,59,0.3)" stroke-width="0.18" />
<line x1="212.49121591900507" y1="656.4912159190051" x2="212.49121591900507" y2="-1876.491215919005" stroke="rgba(138,90,59,0.3)" stroke-width="0.18" />
<line x1="206.49121591900507" y1="656.4912159190051" x2="206.49121591900507" y2="-1876.491215919005" stroke="rgba(138,90,59,0.3)" stroke-width="0.18" />
<line x1="200.49121591900507" y1="656.4912159190051" x2="200.49121591900507" y2="-1876.491215919005" stroke="rgba(138,90,59,0.3)" stroke-width="0.18" />
<line x1="194.49121591900507" y1="656.4912159190051" x2="194.49121591900507" y2="-1876.491215919005" stroke="rgba(138,90,59,0.3)" stroke-width="0.18" />
<line x1="188.49121591900507" y1="656.4912159190051" x2="188.49121591900507" y2="-1876.491215919005" stroke="rgba(138,90,59,0.3)" stroke-width="0.18" />
<line x1="182.49121591900507" y1="656.4912159190051" x2="182.49121591900507" y2="-1876.491215919005" stroke="rgba(138,90,59,0.3)" stroke-width="0.18" />
<line x1="176.49121591900507" y1="656.4912159190051" x2="176.49121591900507" y2="-1876.491215919005" stroke="rgba(138,90,59,0.3)" stroke-width="0.18" />
<line x1="170.49121591900507" y1="656.4912159190051" x2="170.49121591900507" y2="-1876.491215919005" stroke="rgba(138,90,59,0.3)" stroke-width="0.18" />
<line x1="164.49121591900507" y1="656.4912159190051" x2="164.49121591900507" y2="-1876.491215919005" stroke="rgba(138,90,59,0.3)" stroke-width="0.18" />
<line x1="158.49121591900507" y1="656.4912159190051" x2="158.49121591900507" y2="-1876.491215919005" stroke="rgba(138,90,59,0.3)" stroke-width="0.18" />
<line x1="152.49121591900507" y1="656.4912159190051" x2="152.49121591900507" y2="-1876.491215919005" stroke="rgba(138,90,59,0.3)" stroke-width="0.18" />
<line x1="146.49121591900507" y1="656.4912159190051" x2="146.49121591900507" y2="-1876.491215919005" stroke="rgba(138,90,59,0.3)" stroke-width="0.18" />
<line x1="140.49121591900507" y1="656.4912159190051" x2="140.49121591900507" y2="-1876.491215919005" stroke="rgba(138,90,59,0.3)" stroke-width="0.18" />
<line x1="134.49121591900507" y1="656.4912159190051" x2="134.49121591900507" y2="-1876.491215919005" stroke="rgba(138,90,59,0.3)" stroke-width="0.18" />
<line x1="128.49121591900507" y1="656.4912159190051" x2="128.49121591900507" y2="-1876.491215919005" stroke="rgba(138,90,59,0.3)" stroke-width="0.18" />
<line x1="122.49121591900507" y1="656.4912159190051" x2="122.49121591900507" y2="-1876.491215919005" stroke="rgba(138,90,59,0.3)" stroke-width="0.18" />
<line x1="116.49121591900507" y1="656.4912159190051" x2="116.49121591900507" y2="-1876.491215919005" stroke="rgba(138,90,59,0.3)" stroke-width="0.18" />
<line x1="110.49121591900507" y1="656.4912159190051" x2="110.49121591900507" y2="-1876.491215919005" stroke="rgba(138,90,59,0.3)" stroke-width="0.18" />
<line x1="104.49121591900507" y1="656.4912159190051" x2="104.49121591900507" y2="-1876.491215919005" stroke="rgba(138,90,59,0.3)" stroke-width="0.18" />
<line x1="98.49121591900507" y1="656.4912159190051" x2="98.49121591900507" y2="-1876.491215919005" stroke="rgba(138,90,59,0.3)" stroke-width="0.18" />
<line x1="92.49121591900507" y1="656.4912159190051" x2="92.49121591900507" y2="-1876.491215919005" stroke="rgba(138,90,59,0.3)" stroke-width="0.18" />
<line x1="86.49121591900507" y1="656.4912159190051" x2="86.49121591900507" y2="-1876.491215919005" stroke="rgba(138,90,59,0.3)" stroke-width="0.18" />
<line x1="80.49121591900507" y1="656.4912159190051" x2="80.49121591900507" y2="-1876.491215919005" stroke="rgba(138,90,59,0.3)" stroke-width="0.18" />
<line x1="74.49121591900507" y1="656.4912159190051" x2="74.49121591900507" y2="-1876.491215919005" stroke="rgba(138,90,59,0.3)" stroke-width="0.18" />
<line x1="68.49121591900507" y1="656.4912159190051" x2="68.49121591900507" y2="-1876.491215919005" stroke="rgba(138,90,59,0.3)" stroke-width="0.18" />
<line x1="62.49121591900507" y1="656.4912159190051" x2="62.49121591900507" y2="-1876.491215919005" stroke="rgba(138,90,59,0.3)" stroke-width="0.18" />
<line x1="56.49121591900507" y1="656.4912159190051" x2="56.49121591900507" y2="-1876.491215919005" stroke="rgba(138,90,59,0.3)" stroke-width="0.18" />
<line x1="50.49121591900507" y1="656.4912159190051" x2="50.49121591900507" y2="-1876.491215919005" stroke="rgba(138,90,59,0.3)" stroke-width="0.18" />
<line x1="44.49121591900507" y1="656.4912159190051" x2="44.49121591900507" y2="-1876.491215919005" stroke="rgba(138,90,59,0.3)" stroke-width="0.18" />
<line x1="38.49121591900507" y1="656.4912159190051" x2="38.49121591900507" y2="-1876.491215919005" stroke="rgba(138,90,59,0.3)" stroke-width="0.18" />
<line x1="32.49121591900507" y1="656.4912159190051" x2="32.49121591900507" y2="-1876.491215919005" stroke="rgba(138,90,59,0.3)" stroke-width="0.18" />
<line x1="26.49121591900507" y1="656.4912159190051" x2="26.49121591900507" y2="-1876.491215919005" stroke="rgba(138,90,59,0.3)" stroke-width="0.18" />
<line x1="20.49121591900507" y1="656.4912159190051" x2="20.49121591900507" y2="-1876.491215919005" stroke="rgba(138,90,59,0.3)" stroke-width="0.18" />
<line x1="14.491215919005072" y1="656.4912159190051" x2="14.491215919005072" y2="-1876.491215919005" stroke="rgba(138,90,59,0.3)" stroke-width="0.18" />
<line x1="8.491215919005072" y1="656.4912159190051" x2="8.491215919005072" y2="-1876.491215919005" stroke="rgba(138,90,59,0.3)" stroke-width="0.18" />
<line x1="2.4912159190050716" y1="656.4912159190051" x2="2.4912159190050716" y2="-1876.491215919005" stroke="rgba(138,90,59,0.3)" stroke-width="0.18" />
<line x1="-3.5087840809949284" y1="656.4912159190051" x2="-3.5087840809949284" y2="-1876.491215919005" stroke="rgba(138,90,59,0.3)" stroke-width="0.18" />
<line x1="-9.508784080994928" y1="656.4912159190051" x2="-9.508784080994928" y2="-1876.491215919005" stroke="rgba(138,90,59,0.3)" stroke-width="0.18" />
<line x1="-15.508784080994928" y1="656.4912159190051" x2="-15.508784080994928" y2="-1876.491215919005" stroke="rgba(138,90,59,0.3)" stroke-width="0.18" />
<line x1="-21.50878408099493" y1="656.4912159190051" x2="-21.50878408099493" y2="-1876.491215919005" stroke="rgba(138,90,59,0.3)" stroke-width="0.18" />
<line x1="-27.50878408099493" y1="656.4912159190051" x2="-27.50878408099493" y2="-1876.491215919005" stroke="rgba(138,90,59,0.3)" stroke-width="0.18" />
<line x1="-33.50878408099493" y1="656.4912159190051" x2="-33.50878408099493" y2="-1876.491215919005" stroke="rgba(138,90,59,0.3)" stroke-width="0.18" />
<line x1="-39.50878408099493" y1="656.4912159190051" x2="-39.50878408099493" y2="-1876.491215919005" stroke="rgba(138,90,59,0.3)" stroke-width="0.18" />
<line x1="-45.50878408099493" y1="656.4912159190051" x2="-45.50878408099493" y2="-1876.491215919005" stroke="rgba(138,90,59,0.3)" stroke-width="0.18" />
<line x1="-51.50878408099493" y1="656.4912159190051" x2="-51.50878408099493" y2="-1876.491215919005" stroke="rgba(138,90,59,0.3)" stroke-width="0.18" />
<line x1="-57.50878408099493" y1="656.4912159190051" x2="-57.50878408099493" y2="-1876.491215919005" stroke="rgba(138,90,59,0.3)" stroke-width="0.18" />
<line x1="-63.50878408099493" y1="656.4912159190051" x2="-63.50878408099493" y2="-1876.491215919005" stroke="rgba(138,90,59,0.3)" stroke-width="0.18" />
<line x1="-69.50878408099493" y1="656.4912159190051" x2="-69.50878408099493" y2="-1876.491215919005" stroke="rgba(138,90,59,0.3)" stroke-width="0.18" />
<line x1="-75.50878408099493" y1="656.4912159190051" x2="-75.50878408099493" y2="-1876.491215919005" stroke="rgba(138,90,59,0.3)" stroke-width="0.18" />
<line x1="-81.50878408099493" y1="656.4912159190051" x2="-81.50878408099493" y2="-1876.491215919005" stroke="rgba(138,90,59,0.3)" stroke-width="0.18" />
<line x1="-87.50878408099493" y1="656.4912159190051" x2="-87.50878408099493" y2="-1876.491215919005" stroke="rgba(138,90,59,0.3)" stroke-width="0.18" />
<line x1="-93.50878408099493" y1="656.4912159190051" x2="-93.50878408099493" y2="-1876.491215919005" stroke="rgba(138,90,59,0.3)" stroke-width="0.18" />
<line x1="-99.50878408099493" y1="656.4912159190051" x2="-99.50878408099493" y2="-1876.491215919005" stroke="rgba(138,90,59,0.3)" stroke-width="0.18" />
<line x1="-105.50878408099493" y1="656.4912159190051" x2="-105.50878408099493" y2="-1876.491215919005" stroke="rgba(138,90,59,0.3)" stroke-width="0.18" />
<line x1="-111.50878408099493" y1="656.4912159190051" x2="-111.50878408099493" y2="-1876.491215919005" stroke="rgba(138,90,59,0.3)" stroke-width="0.18" />
<line x1="-117.50878408099493" y1="656.4912159190051" x2="-117.50878408099493" y2="-1876.491215919005" stroke="rgba(138,90,59,0.3)" stroke-width="0.18" />
<line x1="-123.50878408099493" y1="656.4912159190051" x2="-123.50878408099493" y2="-1876.491215919005" stroke="rgba(138,90,59,0.3)" stroke-width="0.18" />
<line x1="-129.50878408099493" y1="656.4912159190051" x2="-129.50878408099493" y2="-1876.491215919005" stroke="rgba(138,90,59,0.3)" stroke-width="0.18" />
<line x1="-135.50878408099493" y1="656.4912159190051" x2="-135.50878408099493" y2="-1876.491215919005" stroke="rgba(138,90,59,0.3)" stroke-width="0.18" />
<line x1="-141.50878408099493" y1="656.4912159190051" x2="-141.50878408099493" y2="-1876.491215919005" stroke="rgba(138,90,59,0.3)" stroke-width="0.18" />
<line x1="-147.50878408099493" y1="656.4912159190051" x2="-147.50878408099493" y2="-1876.491215919005" stroke="rgba(138,90,59,0.3)" stroke-width="0.18" />
<line x1="-153.50878408099493" y1="656.4912159190051" x2="-153.50878408099493" y2="-1876.491215919005" stroke="rgba(138,90,59,0.3)" stroke-width="0.18" />
<line x1="-159.50878408099493" y1="656.4912159190051" x2="-159.50878408099493" y2="-1876.491215919005" stroke="rgba(138,90,59,0.3)" stroke-width="0.18" />
<line x1="-165.50878408099493" y1="656.4912159190051" x2="-165.50878408099493" y2="-1876.491215919005" stroke="rgba(138,90,59,0.3)" stroke-width="0.18" />
<line x1="-171.50878408099493" y1="656.4912159190051" x2="-171.50878408099493" y2="-1876.491215919005" stroke="rgba(138,90,59,0.3)" stroke-width="0.18" />
<line x1="-177.50878408099493" y1="656.4912159190051" x2="-177.50878408099493" y2="-1876.491215919005" stroke="rgba(138,90,59,0.3)" stroke-width="0.18" />
<line x1="-183.50878408099493" y1="656.4912159190051" x2="-183.50878408099493" y2="-1876.491215919005" stroke="rgba(138,90,59,0.3)" stroke-width="0.18" />
<line x1="-189.50878408099493" y1="656.4912159190051" x2="-189.50878408099493" y2="-1876.491215919005" stroke="rgba(138,90,59,0.3)" stroke-width="0.18" />
<line x1="-195.50878408099493" y1="656.4912159190051" x2="-195.50878408099493" y2="-1876.491215919005" stroke="rgba(138,90,59,0.3)" stroke-width="0.18" />
<line x1="-201.50878408099493" y1="656.4912159190051" x2="-201.50878408099493" y2="-1876.491215919005" stroke="rgba(138,90,59,0.3)" stroke-width="0.18" />
<line x1="-207.50878408099493" y1="656.4912159190051" x2="-207.50878408099493" y2="-1876.491215919005" stroke="rgba(138,90,59,0.3)" stroke-width="0.18" />
<line x1="-213.50878408099493" y1="656.4912159190051" x2="-213.50878408099493" y2="-1876.491215919005" stroke="rgba(138,90,59,0.3)" stroke-width="0.18" />
<line x1="-219.50878408099493" y1="656.4912159190051" x2="-219.50878408099493" y2="-1876.491215919005" stroke="rgba(138,90,59,0.3)" stroke-width="0.18" />
<line x1="-225.50878408099493" y1="656.4912159190051" x2="-225.50878408099493" y2="-1876.491215919005" stroke="rgba(138,90,59,0.3)" stroke-width="0.18" />
<line x1="-231.50878408099493" y1="656.4912159190051" x2="-231.50878408099493" y2="-1876.491215919005" stroke="rgba(138,90,59,0.3)" stroke-width="0.18" />
<line x1="-237.50878408099493" y1="656.4912159190051" x2="-237.50878408099493" y2="-1876.491215919005" stroke="rgba(138,90,59,0.3)" stroke-width="0.18" />
<line x1="-243.50878408099493" y1="656.4912159190051" x2="-243.50878408099493" y2="-1876.491215919005" stroke="rgba(138,90,59,0.3)" stroke-width="0.18" />
<line x1="-249.50878408099493" y1="656.4912159190051" x2="-249.50878408099493" y2="-1876.491215919005" stroke="rgba(138,90,59,0.3)" stroke-width="0.18" />
<line x1="-255.50878408099493" y1="656.4912159190051" x2="-255.50878408099493" y2="-1876.491215919005" stroke="rgba(138,90,59,0.3)" stroke-width="0.18" />
<line x1="-261.50878408099493" y1="656.4912159190051" x2="-261.50878408099493" y2="-1876.491215919005" stroke="rgba(138,90,59,0.3)" stroke-width="0.18" />
<line x1="-267.50878408099493" y1="656.4912159190051" x2="-267.50878408099493" y2="-1876.491215919005" stroke="rgba(138,90,59,0.3)" stroke-width="0.18" />
<line x1="-273.50878408099493" y1="656.4912159190051" x2="-273.50878408099493" y2="-1876.491215919005" stroke="rgba(138,90,59,0.3)" stroke-width="0.18" />
<line x1="-279.50878408099493" y1="656.4912159190051" x2="-279.50878408099493" y2="-1876.491215919005" stroke="rgba(138,90,59,0.3)" stroke-width="0.18" />
<line x1="-285.50878408099493" y1="656.4912159190051" x2="-285.50878408099493" y2="-1876.491215919005" stroke="rgba(138,90,59,0.3)" stroke-width="0.18" />
<line x1="-291.50878408099493" y1="656.4912159190051" x2="-291.50878408099493" y2="-1876.491215919005" stroke="rgba(138,90,59,0.3)" stroke-width="0.18" />
<line x1="-297.50878408099493" y1="656.4912159190051" x2="-297.50878408099493" y2="-1876.491215919005" stroke="rgba(138,90,59,0.3)" stroke-width="0.18" />
<line x1="-303.50878408099493" y1="656.4912159190051" x2="-303.50878408099493" y2="-1876.491215919005" stroke="rgba(138,90,59,0.3)" stroke-width="0.18" />
<line x1="-309.50878408099493" y1="656.4912159190051" x2="-309.50878408099493" y2="-1876.491215919005" stroke="rgba(138,90,59,0.3)" stroke-width="0.18" />
<line x1="-315.50878408099493" y1="656.4912159190051" x2="-315.50878408099493" y2="-1876.491215919005" stroke="rgba(138,90,59,0.3)" stroke-width="0.18" />
<line x1="-321.50878408099493" y1="656.4912159190051" x2="-321.50878408099493" y2="-1876.491215919005" stroke="rgba(138,90,59,0.3)" stroke-width="0.18" />
<line x1="-327.50878408099493" y1="656.4912159190051" x2="-327.50878408099493" y2="-1876.491215919005" stroke="rgba(138,90,59,0.3)" stroke-width="0.18" />
<line x1="-333.50878408099493" y1="656.4912159190051" x2="-333.50878408099493" y2="-1876.491215919005" stroke="rgba(138,90,59,0.3)" stroke-width="0.18" />
<line x1="-339.50878408099493" y1="656.4912159190051" x2="-339.50878408099493" y2="-1876.491215919005" stroke="rgba(138,90,59,0.3)" stroke-width="0.18" />
<line x1="-345.50878408099493" y1="656.4912159190051" x2="-345.50878408099493" y2="-1876.491215919005" stroke="rgba(138,90,59,0.3)" stroke-width="0.18" />
<line x1="-351.50878408099493" y1="656.4912159190051" x2="-351.50878408099493" y2="-1876.491215919005" stroke="rgba(138,90,59,0.3)" stroke-width="0.18" />
<line x1="-357.50878408099493" y1="656.4912159190051" x2="-357.50878408099493" y2="-1876.491215919005" stroke="rgba(138,90,59,0.3)" stroke-width="0.18" />
<line x1="-363.50878408099493" y1="656.4912159190051" x2="-363.50878408099493" y2="-1876.491215919005" stroke="rgba(138,90,59,0.3)" stroke-width="0.18" />
<line x1="-369.50878408099493" y1="656.4912159190051" x2="-369.50878408099493" y2="-1876.491215919005" stroke="rgba(138,90,59,0.3)" stroke-width="0.18" />
<line x1="-375.50878408099493" y1="656.4912159190051" x2="-375.50878408099493" y2="-1876.491215919005" stroke="rgba(138,90,59,0.3)" stroke-width="0.18" />
<line x1="-381.50878408099493" y1="656.4912159190051" x2="-381.50878408099493" y2="-1876.491215919005" stroke="rgba(138,90,59,0.3)" stroke-width="0.18" />
<line x1="-387.50878408099493" y1="656.4912159190051" x2="-387.50878408099493" y2="-1876.491215919005" stroke="rgba(138,90,59,0.3)" stroke-width="0.18" />
<line x1="-393.50878408099493" y1="656.4912159190051" x2="-393.50878408099493" y2="-1876.491215919005" stroke="rgba(138,90,59,0.3)" stroke-width="0.18" />
<line x1="-399.50878408099493" y1="656.4912159190051" x2="-399.50878408099493" y2="-1876.491215919005" stroke="rgba(138,90,59,0.3)" stroke-width="0.18" />
<line x1="-405.50878408099493" y1="656.4912159190051" x2="-405.50878408099493" y2="-1876.491215919005" stroke="rgba(138,90,59,0.3)" stroke-width="0.18" />
<line x1="-411.50878408099493" y1="656.4912159190051" x2="-411.50878408099493" y2="-1876.491215919005" stroke="rgba(138,90,59,0.3)" stroke-width="0.18" />
<line x1="-417.50878408099493" y1="656.4912159190051" x2="-417.50878408099493" y2="-1876.491215919005" stroke="rgba(138,90,59,0.3)" stroke-width="0.18" />
<line x1="-423.50878408099493" y1="656.4912159190051" x2="-423.50878408099493" y2="-1876.491215919005" stroke="rgba(138,90,59,0.3)" stroke-width="0.18" />
<line x1="-429.50878408099493" y1="656.4912159190051" x2="-429.50878408099493" y2="-1876.491215919005" stroke="rgba(138,90,59,0.3)" stroke-width="0.18" />
<line x1="-435.50878408099493" y1="656.4912159190051" x2="-435.50878408099493" y2="-1876.491215919005" stroke="rgba(138,90,59,0.3)" stroke-width="0.18" />
<line x1="-441.50878408099493" y1="656.4912159190051" x2="-441.50878408099493" y2="-1876.491215919005" stroke="rgba(138,90,59,0.3)" stroke-width="0.18" />
<line x1="-447.50878408099493" y1="656.4912159190051" x2="-447.50878408099493" y2="-1876.491215919005" stroke="rgba(138,90,59,0.3)" stroke-width="0.18" />
<line x1="-453.50878408099493" y1="656.4912159190051" x2="-453.50878408099493" y2="-1876.491215919005" stroke="rgba(138,90,59,0.3)" stroke-width="0.18" />
<line x1="-459.50878408099493" y1="656.4912159190051" x2="-459.50878408099493" y2="-1876.491215919005" stroke="rgba(138,90,59,0.3)" stroke-width="0.18" />
<line x1="-465.50878408099493" y1="656.4912159190051" x2="-465.50878408099493" y2="-1876.491215919005" stroke="rgba(138,90,59,0.3)" stroke-width="0.18" />
<line x1="-471.50878408099493" y1="656.4912159190051" x2="-471.50878408099493" y2="-1876.491215919005" stroke="rgba(138,90,59,0.3)" stroke-width="0.18" />
<line x1="-477.50878408099493" y1="656.4912159190051" x2="-477.50878408099493" y2="-1876.491215919005" stroke="rgba(138,90,59,0.3)" stroke-width="0.18" />
<line x1="-483.50878408099493" y1="656.4912159190051" x2="-483.50878408099493" y2="-1876.491215919005" stroke="rgba(138,90,59,0.3)" stroke-width="0.18" />
<line x1="-489.50878408099493" y1="656.4912159190051" x2="-489.50878408099493" y2="-1876.491215919005" stroke="rgba(138,90,59,0.3)" stroke-width="0.18" />
<line x1="-495.50878408099493" y1="656.4912159190051" x2="-495.50878408099493" y2="-1876.491215919005" stroke="rgba(138,90,59,0.3)" stroke-width="0.18" />
<line x1="-501.50878408099493" y1="656.4912159190051" x2="-501.50878408099493" y2="-1876.491215919005" stroke="rgba(138,90,59,0.3)" stroke-width="0.18" />
<line x1="-507.50878408099493" y1="656.4912159190051" x2="-507.50878408099493" y2="-1876.491215919005" stroke="rgba(138,90,59,0.3)" stroke-width="0.18" />
<line x1="-513.5087840809949" y1="656.4912159190051" x2="-513.5087840809949" y2="-1876.491215919005" stroke="rgba(138,90,59,0.3)" stroke-width="0.18" />
<line x1="-519.5087840809949" y1="656.4912159190051" x2="-519.5087840809949" y2="-1876.491215919005" stroke="rgba(138,90,59,0.3)" stroke-width="0.18" />
<line x1="-525.5087840809949" y1="656.4912159190051" x2="-525.5087840809949" y2="-1876.491215919005" stroke="rgba(138,90,59,0.3)" stroke-width="0.18" />
<line x1="-531.5087840809949" y1="656.4912159190051" x2="-531.5087840809949" y2="-1876.491215919005" stroke="rgba(138,90,59,0.3)" stroke-width="0.18" />
<line x1="-537.5087840809949" y1="656.4912159190051" x2="-537.5087840809949" y2="-1876.491215919005" stroke="rgba(138,90,59,0.3)" stroke-width="0.18" />
<line x1="-543.5087840809949" y1="656.4912159190051" x2="-543.5087840809949" y2="-1876.491215919005" stroke="rgba(138,90,59,0.3)" stroke-width="0.18" />
<line x1="-549.5087840809949" y1="656.4912159190051" x2="-549.5087840809949" y2="-1876.491215919005" stroke="rgba(138,90,59,0.3)" stroke-width="0.18" />
<line x1="-555.5087840809949" y1="656.4912159190051" x2="-555.5087840809949" y2="-1876.491215919005" stroke="rgba(138,90,59,0.3)" stroke-width="0.18" />
<line x1="-561.5087840809949" y1="656.4912159190051" x2="-561.5087840809949" y2="-1876.491215919005" stroke="rgba(138,90,59,0.3)" stroke-width="0.18" />
<line x1="-567.5087840809949" y1="656.4912159190051" x2="-567.5087840809949" y2="-1876.491215919005" stroke="rgba(138,90,59,0.3)" stroke-width="0.18" />
<line x1="-573.5087840809949" y1="656.4912159190051" x2="-573.5087840809949" y2="-1876.491215919005" stroke="rgba(138,90,59,0.3)" stroke-width="0.18" />
<line x1="-579.5087840809949" y1="656.4912159190051" x2="-579.5087840809949" y2="-1876.491215919005" stroke="rgba(138,90,59,0.3)" stroke-width="0.18" />
<line x1="-585.5087840809949" y1="656.4912159190051" x2="-585.5087840809949" y2="-1876.491215919005" stroke="rgba(138,90,59,0.3)" stroke-width="0.18" />
<line x1="-591.5087840809949" y1="656.4912159190051" x2="-591.5087840809949" y2="-1876.491215919005" stroke="rgba(138,90,59,0.3)" stroke-width="0.18" />
<line x1="-597.5087840809949" y1="656.4912159190051" x2="-597.5087840809949" y2="-1876.491215919005" stroke="rgba(138,90,59,0.3)" stroke-width="0.18" />
<line x1="-603.5087840809949" y1="656.4912159190051" x2="-603.5087840809949" y2="-1876.491215919005" stroke="rgba(138,90,59,0.3)" stroke-width="0.18" />
<line x1="-609.5087840809949" y1="656.4912159190051" x2="-609.5087840809949" y2="-1876.491215919005" stroke="rgba(138,90,59,0.3)" stroke-width="0.18" />
<line x1="-615.5087840809949" y1="656.4912159190051" x2="-615.5087840809949" y2="-1876.491215919005" stroke="rgba(138,90,59,0.3)" stroke-width="0.18" />
<line x1="-621.5087840809949" y1="656.4912159190051" x2="-621.5087840809949" y2="-1876.491215919005" stroke="rgba(138,90,59,0.3)" stroke-width="0.18" />
<line x1="-627.5087840809949" y1="656.4912159190051" x2="-627.5087840809949" y2="-1876.491215919005" stroke="rgba(138,90,59,0.3)" stroke-width="0.18" />
<line x1="-633.5087840809949" y1="656.4912159190051" x2="-633.5087840809949" y2="-1876.491215919005" stroke="rgba(138,90,59,0.3)" stroke-width="0.18" />
<line x1="-639.5087840809949" y1="656.4912159190051" x2="-639.5087840809949" y2="-1876.491215919005" stroke="rgba(138,90,59,0.3)" stroke-width="0.18" />
<line x1="-645.5087840809949" y1="656.4912159190051" x2="-645.5087840809949" y2="-1876.491215919005" stroke="rgba(138,90,59,0.3)" stroke-width="0.18" />
<line x1="-651.5087840809949" y1="656.4912159190051" x2="-651.5087840809949" y2="-1876.491215919005" stroke="rgba(138,90,59,0.3)" stroke-width="0.18" />
<line x1="-657.5087840809949" y1="656.4912159190051" x2="-657.5087840809949" y2="-1876.491215919005" stroke="rgba(138,90,59,0.3)" stroke-width="0.18" />
<line x1="-663.5087840809949" y1="656.4912159190051" x2="-663.5087840809949" y2="-1876.491215919005" stroke="rgba(138,90,59,0.3)" stroke-width="0.18" />
<line x1="-669.5087840809949" y1="656.4912159190051" x2="-669.5087840809949" y2="-1876.491215919005" stroke="rgba(138,90,59,0.3)" stroke-width="0.18" />
<line x1="-675.5087840809949" y1="656.4912159190051" x2="-675.5087840809949" y2="-1876.491215919005" stroke="rgba(138,90,59,0.3)" stroke-width="0.18" />
<line x1="-681.5087840809949" y1="656.4912159190051" x2="-681.5087840809949" y2="-1876.491215919005" stroke="rgba(138,90,59,0.3)" stroke-width="0.18" />
<line x1="-687.5087840809949" y1="656.4912159190051" x2="-687.5087840809949" y2="-1876.491215919005" stroke="rgba(138,90,59,0.3)" stroke-width="0.18" />
<line x1="-693.5087840809949" y1="656.4912159190051" x2="-693.5087840809949" y2="-1876.491215919005" stroke="rgba(138,90,59,0.3)" stroke-width="0.18" />
<line x1="-699.5087840809949" y1="656.4912159190051" x2="-699.5087840809949" y2="-1876.491215919005" stroke="rgba(138,90,59,0.3)" stroke-width="0.18" />
<line x1="-705.5087840809949" y1="656.4912159190051" x2="-705.5087840809949" y2="-1876.491215919005" stroke="rgba(138,90,59,0.3)" stroke-width="0.18" />
<line x1="-711.5087840809949" y1="656.4912159190051" x2="-711.5087840809949" y2="-1876.491215919005" stroke="rgba(138,90,59,0.3)" stroke-width="0.18" />
<line x1="-717.5087840809949" y1="656.4912159190051" x2="-717.5087840809949" y2="-1876.491215919005" stroke="rgba(138,90,59,0.3)" stroke-width="0.18" />
<line x1="-723.5087840809949" y1="656.4912159190051" x2="-723.5087840809949" y2="-1876.491215919005" stroke="rgba(138,90,59,0.3)" stroke-width="0.18" />
<line x1="-729.5087840809949" y1="656.4912159190051" x2="-729.5087840809949" y2="-1876.491215919005" stroke="rgba(138,90,59,0.3)" stroke-width="0.18" />
<line x1="-735.5087840809949" y1="656.4912159190051" x2="-735.5087840809949" y2="-1876.491215919005" stroke="rgba(138,90,59,0.3)" stroke-width="0.18" />
<line x1="-741.5087840809949" y1="656.4912159190051" x2="-741.5087840809949" y2="-1876.491215919005" stroke="rgba(138,90,59,0.3)" stroke-width="0.18" />
<line x1="-747.5087840809949" y1="656.4912159190051" x2="-747.5087840809949" y2="-1876.491215919005" stroke="rgba(138,90,59,0.3)" stroke-width="0.18" />
<line x1="-753.5087840809949" y1="656.4912159190051" x2="-753.5087840809949" y2="-1876.491215919005" stroke="rgba(138,90,59,0.3)" stroke-width="0.18" />
<line x1="-759.5087840809949" y1="656.4912159190051" x2="-759.5087840809949" y2="-1876.491215919005" stroke="rgba(138,90,59,0.3)" stroke-width="0.18" />
<line x1="-765.5087840809949" y1="656.4912159190051" x2="-765.5087840809949" y2="-1876.491215919005" stroke="rgba(138,90,59,0.3)" stroke-width="0.18" />
<line x1="-771.5087840809949" y1="656.4912159190051" x2="-771.5087840809949" y2="-1876.491215919005" stroke="rgba(138,90,59,0.3)" stroke-width="0.18" />
<line x1="-777.5087840809949" y1="656.4912159190051" x2="-777.5087840809949" y2="-1876.491215919005" stroke="rgba(138,90,59,0.3)" stroke-width="0.18" />
<line x1="-783.5087840809949" y1="656.4912159190051" x2="-783.5087840809949" y2="-1876.491215919005" stroke="rgba(138,90,59,0.3)" stroke-width="0.18" />
<line x1="-789.5087840809949" y1="656.4912159190051" x2="-789.5087840809949" y2="-1876.491215919005" stroke="rgba(138,90,59,0.3)" stroke-width="0.18" />
<line x1="-795.5087840809949" y1="656.4912159190051" x2="-795.5087840809949" y2="-1876.491215919005" stroke="rgba(138,90,59,0.3)" stroke-width="0.18" />
<line x1="-801.5087840809949" y1="656.4912159190051" x2="-801.5087840809949" y2="-1876.491215919005" stroke="rgba(138,90,59,0.3)" stroke-width="0.18" />
<line x1="-807.5087840809949" y1="656.4912159190051" x2="-807.5087840809949" y2="-1876.491215919005" stroke="rgba(138,90,59,0.3)" stroke-width="0.18" />
<line x1="-813.5087840809949" y1="656.4912159190051" x2="-813.5087840809949" y2="-1876.491215919005" stroke="rgba(138,90,59,0.3)" stroke-width="0.18" />
<line x1="-819.5087840809949" y1="656.4912159190051" x2="-819.5087840809949" y2="-1876.491215919005" stroke="rgba(138,90,59,0.3)" stroke-width="0.18" />
<line x1="-825.5087840809949" y1="656.4912159190051" x2="-825.5087840809949" y2="-1876.491215919005" stroke="rgba(138,90,59,0.3)" stroke-width="0.18" />
<line x1="-831.5087840809949" y1="656.4912159190051" x2="-831.5087840809949" y2="-1876.491215919005" stroke="rgba(138,90,59,0.3)" stroke-width="0.18" />
<line x1="-837.5087840809949" y1="656.4912159190051" x2="-837.5087840809949" y2="-1876.491215919005" stroke="rgba(138,90,59,0.3)" stroke-width="0.18" />
<line x1="-843.5087840809949" y1="656.4912159190051" x2="-843.5087840809949" y2="-1876.491215919005" stroke="rgba(138,90,59,0.3)" stroke-width="0.18" />
<line x1="-849.5087840809949" y1="656.4912159190051" x2="-849.5087840809949" y2="-1876.491215919005" stroke="rgba(138,90,59,0.3)" stroke-width="0.18" />
<line x1="-855.5087840809949" y1="656.4912159190051" x2="-855.5087840809949" y2="-1876.491215919005" stroke="rgba(138,90,59,0.3)" stroke-width="0.18" />
<line x1="-861.5087840809949" y1="656.4912159190051" x2="-861.5087840809949" y2="-1876.491215919005" stroke="rgba(138,90,59,0.3)" stroke-width="0.18" />
<line x1="-867.5087840809949" y1="656.4912159190051" x2="-867.5087840809949" y2="-1876.491215919005" stroke="rgba(138,90,59,0.3)" stroke-width="0.18" />
<line x1="-873.5087840809949" y1="656.4912159190051" x2="-873.5087840809949" y2="-1876.491215919005" stroke="rgba(138,90,59,0.3)" stroke-width="0.18" />
<line x1="-879.5087840809949" y1="656.4912159190051" x2="-879.5087840809949" y2="-1876.491215919005" stroke="rgba(138,90,59,0.3)" stroke-width="0.18" />
<line x1="-885.5087840809949" y1="656.4912159190051" x2="-885.5087840809949" y2="-1876.491215919005" stroke="rgba(138,90,59,0.3)" stroke-width="0.18" />
<line x1="-891.5087840809949" y1="656.4912159190051" x2="-891.5087840809949" y2="-1876.491215919005" stroke="rgba(138,90,59,0.3)" stroke-width="0.18" />
<line x1="-897.5087840809949" y1="656.4912159190051" x2="-897.5087840809949" y2="-1876.491215919005" stroke="rgba(138,90,59,0.3)" stroke-width="0.18" />
<line x1="-903.5087840809949" y1="656.4912159190051" x2="-903.5087840809949" y2="-1876.491215919005" stroke="rgba(138,90,59,0.3)" stroke-width="0.18" />
<line x1="-909.5087840809949" y1="656.4912159190051" x2="-909.5087840809949" y2="-1876.491215919005" stroke="rgba(138,90,59,0.3)" stroke-width="0.18" />
<line x1="-915.5087840809949" y1="656.4912159190051" x2="-915.5087840809949" y2="-1876.491215919005" stroke="rgba(138,90,59,0.3)" stroke-width="0.18" />
<line x1="-921.5087840809949" y1="656.4912159190051" x2="-921.5087840809949" y2="-1876.491215919005" stroke="rgba(138,90,59,0.3)" stroke-width="0.18" />
<line x1="-927.5087840809949" y1="656.4912159190051" x2="-927.5087840809949" y2="-1876.491215919005" stroke="rgba(138,90,59,0.3)" stroke-width="0.18" />
<line x1="-933.5087840809949" y1="656.4912159190051" x2="-933.5087840809949" y2="-1876.491215919005" stroke="rgba(138,90,59,0.3)" stroke-width="0.18" />
<line x1="-939.5087840809949" y1="656.4912159190051" x2="-939.5087840809949" y2="-1876.491215919005" stroke="rgba(138,90,59,0.3)" stroke-width="0.18" />
<line x1="-945.5087840809949" y1="656.4912159190051" x2="-945.5087840809949" y2="-1876.491215919005" stroke="rgba(138,90,59,0.3)" stroke-width="0.18" />
<line x1="-951.5087840809949" y1="656.4912159190051" x2="-951.5087840809949" y2="-1876.491215919005" stroke="rgba(138,90,59,0.3)" stroke-width="0.18" />
<line x1="-957.5087840809949" y1="656.4912159190051" x2="-957.5087840809949" y2="-1876.491215919005" stroke="rgba(138,90,59,0.3)" stroke-width="0.18" />
<line x1="-963.5087840809949" y1="656.4912159190051" x2="-963.5087840809949" y2="-1876.491215919005" stroke="rgba(138,90,59,0.3)" stroke-width="0.18" />
<line x1="-969.5087840809949" y1="656.4912159190051" x2="-969.5087840809949" y2="-1876.491215919005" stroke="rgba(138,90,59,0.3)" stroke-width="0.18" />
<line x1="-975.5087840809949" y1="656.4912159190051" x2="-975.5087840809949" y2="-1876.491215919005" stroke="rgba(138,90,59,0.3)" stroke-width="0.18" />
<line x1="-981.5087840809949" y1="656.4912159190051" x2="-981.5087840809949" y2="-1876.491215919005" stroke="rgba(138,90,59,0.3)" stroke-width="0.18" />
<line x1="-987.5087840809949" y1="656.4912159190051" x2="-987.5087840809949" y2="-1876.491215919005" stroke="rgba(138,90,59,0.3)" stroke-width="0.18" />
<line x1="-993.5087840809949" y1="656.4912159190051" x2="-993.5087840809949" y2="-1876.491215919005" stroke="rgba(138,90,59,0.3)" stroke-width="0.18" />
<line x1="-999.5087840809949" y1="656.4912159190051" x2="-999.5087840809949" y2="-1876.491215919005" stroke="rgba(138,90,59,0.3)" stroke-width="0.18" />
<line x1="-1005.5087840809949" y1="656.4912159190051" x2="-1005.5087840809949" y2="-1876.491215919005" stroke="rgba(138,90,59,0.3)" stroke-width="0.18" />
<line x1="-1011.5087840809949" y1="656.4912159190051" x2="-1011.5087840809949" y2="-1876.491215919005" stroke="rgba(138,90,59,0.3)" stroke-width="0.18" />
<line x1="-1017.5087840809949" y1="656.4912159190051" x2="-1017.5087840809949" y2="-1876.491215919005" stroke="rgba(138,90,59,0.3)" stroke-width="0.18" />
<line x1="-1023.5087840809949" y1="656.4912159190051" x2="-1023.5087840809949" y2="-1876.491215919005" stroke="rgba(138,90,59,0.3)" stroke-width="0.18" />
<line x1="-1029.508784080995" y1="656.4912159190051" x2="-1029.508784080995" y2="-1876.491215919005" stroke="rgba(138,90,59,0.3)" stroke-width="0.18" />
<line x1="-1035.508784080995" y1="656.4912159190051" x2="-1035.508784080995" y2="-1876.491215919005" stroke="rgba(138,90,59,0.3)" stroke-width="0.18" />
<line x1="-1041.508784080995" y1="656.4912159190051" x2="-1041.508784080995" y2="-1876.491215919005" stroke="rgba(138,90,59,0.3)" stroke-width="0.18" />
<line x1="-1047.508784080995" y1="656.4912159190051" x2="-1047.508784080995" y2="-1876.491215919005" stroke="rgba(138,90,59,0.3)" stroke-width="0.18" />
<line x1="-1053.508784080995" y1="656.4912159190051" x2="-1053.508784080995" y2="-1876.491215919005" stroke="rgba(138,90,59,0.3)" stroke-width="0.18" />
<line x1="-1059.508784080995" y1="656.4912159190051" x2="-1059.508784080995" y2="-1876.491215919005" stroke="rgba(138,90,59,0.3)" stroke-width="0.18" />
<line x1="-1065.508784080995" y1="656.4912159190051" x2="-1065.508784080995" y2="-1876.491215919005" stroke="rgba(138,90,59,0.3)" stroke-width="0.18" />
<line x1="-1071.508784080995" y1="656.4912159190051" x2="-1071.508784080995" y2="-1876.491215919005" stroke="rgba(138,90,59,0.3)" stroke-width="0.18" />
<line x1="-1077.508784080995" y1="656.4912159190051" x2="-1077.508784080995" y2="-1876.491215919005" stroke="rgba(138,90,59,0.3)" stroke-width="0.18" />
<line x1="-1083.508784080995" y1="656.4912159190051" x2="-1083.508784080995" y2="-1876.491215919005" stroke="rgba(138,90,59,0.3)" stroke-width="0.18" />
<line x1="-1089.508784080995" y1="656.4912159190051" x2="-1089.508784080995" y2="-1876.491215919005" stroke="rgba(138,90,59,0.3)" stroke-width="0.18" />
<line x1="-1095.508784080995" y1="656.4912159190051" x2="-1095.508784080995" y2="-1876.491215919005" stroke="rgba(138,90,59,0.3)" stroke-width="0.18" />
<text x="170" y="-613.85" fill="rgba(138,90,59,0.85)" font-family="system-ui" font-size="7" text-anchor="middle" dominant-baseline="central">340×1220</text>
<text x="170" y="-606.15" fill="#666" font-family="system-ui" font-size="5.95" text-anchor="middle" dominant-baseline="central">GL28h</text>
<rect x="110" y="-1100" width="120" height="900" fill="none" stroke="#3b5e8a" stroke-width="0.84" />
<rect x="110" y="-1100" width="120" height="900" fill="rgba(59,94,138,0.06)" stroke="none" />
<line x1="110" y1="-206" x2="116" y2="-200" stroke="rgba(59,94,138,0.5)" stroke-width="0.3" />
<line x1="110" y1="-212" x2="122" y2="-200" stroke="rgba(59,94,138,0.5)" stroke-width="0.3" />
<line x1="110" y1="-218" x2="128" y2="-200" stroke="rgba(59,94,138,0.5)" stroke-width="0.3" />
<line x1="110" y1="-224" x2="134" y2="-200" stroke="rgba(59,94,138,0.5)" stroke-width="0.3" />
<line x1="110" y1="-230" x2="140" y2="-200" stroke="rgba(59,94,138,0.5)" stroke-width="0.3" />
<line x1="110" y1="-236" x2="146" y2="-200" stroke="rgba(59,94,138,0.5)" stroke-width="0.3" />
<line x1="110" y1="-242" x2="152" y2="-200" stroke="rgba(59,94,138,0.5)" stroke-width="0.3" />
<line x1="110" y1="-248" x2="158" y2="-200" stroke="rgba(59,94,138,0.5)" stroke-width="0.3" />
<line x1="110" y1="-254" x2="164" y2="-200" stroke="rgba(59,94,138,0.5)" stroke-width="0.3" />
<line x1="110" y1="-260" x2="170" y2="-200" stroke="rgba(59,94,138,0.5)" stroke-width="0.3" />
<line x1="110" y1="-266" x2="176" y2="-200" stroke="rgba(59,94,138,0.5)" stroke-width="0.3" />
<line x1="110" y1="-272" x2="182" y2="-200" stroke="rgba(59,94,138,0.5)" stroke-width="0.3" />
<line x1="110" y1="-278" x2="188" y2="-200" stroke="rgba(59,94,138,0.5)" stroke-width="0.3" />
<line x1="110" y1="-284" x2="194" y2="-200" stroke="rgba(59,94,138,0.5)" stroke-width="0.3" />
<line x1="110" y1="-290" x2="200" y2="-200" stroke="rgba(59,94,138,0.5)" stroke-width="0.3" />
<line x1="110" y1="-296" x2="206" y2="-200" stroke="rgba(59,94,138,0.5)" stroke-width="0.3" />
<line x1="110" y1="-302" x2="212" y2="-200" stroke="rgba(59,94,138,0.5)" stroke-width="0.3" />
<line x1="110" y1="-308" x2="218" y2="-200" stroke="rgba(59,94,138,0.5)" stroke-width="0.3" />
<line x1="110" y1="-314" x2="224" y2="-200" stroke="rgba(59,94,138,0.5)" stroke-width="0.3" />
<line x1="110" y1="-320" x2="230" y2="-200" stroke="rgba(59,94,138,0.5)" stroke-width="0.3" />
<line x1="110" y1="-326" x2="230" y2="-206" stroke="rgba(59,94,138,0.5)" stroke-width="0.3" />
<line x1="110" y1="-332" x2="230" y2="-212" stroke="rgba(59,94,138,0.5)" stroke-width="0.3" />
<line x1="110" y1="-338" x2="230" y2="-218" stroke="rgba(59,94,138,0.5)" stroke-width="0.3" />
<line x1="110" y1="-344" x2="230" y2="-224" stroke="rgba(59,94,138,0.5)" stroke-width="0.3" />
<line x1="110" y1="-350" x2="230" y2="-230" stroke="rgba(59,94,138,0.5)" stroke-width="0.3" />
<line x1="110" y1="-356" x2="230" y2="-236" stroke="rgba(59,94,138,0.5)" stroke-width="0.3" />
<line x1="110" y1="-362" x2="230" y2="-242" stroke="rgba(59,94,138,0.5)" stroke-width="0.3" />
<line x1="110" y1="-368" x2="230" y2="-248" stroke="rgba(59,94,138,0.5)" stroke-width="0.3" />
<line x1="110" y1="-374" x2="230" y2="-254" stroke="rgba(59,94,138,0.5)" stroke-width="0.3" />
<line x1="110" y1="-380" x2="230" y2="-260" stroke="rgba(59,94,138,0.5)" stroke-width="0.3" />
<line x1="110" y1="-386" x2="230" y2="-266" stroke="rgba(59,94,138,0.5)" stroke-width="0.3" />
<line x1="110" y1="-392" x2="230" y2="-272" stroke="rgba(59,94,138,0.5)" stroke-width="0.3" />
<line x1="110" y1="-398" x2="230" y2="-278" stroke="rgba(59,94,138,0.5)" stroke-width="0.3" />
<line x1="110" y1="-404" x2="230" y2="-284" stroke="rgba(59,94,138,0.5)" stroke-width="0.3" />
<line x1="110" y1="-410" x2="230" y2="-290" stroke="rgba(59,94,138,0.5)" stroke-width="0.3" />
<line x1="110" y1="-416" x2="230" y2="-296" stroke="rgba(59,94,138,0.5)" stroke-width="0.3" />
<line x1="110" y1="-422" x2="230" y2="-302" stroke="rgba(59,94,138,0.5)" stroke-width="0.3" />
<line x1="110" y1="-428" x2="230" y2="-308" stroke="rgba(59,94,138,0.5)" stroke-width="0.3" />
<line x1="110" y1="-434" x2="230" y2="-314" stroke="rgba(59,94,138,0.5)" stroke-width="0.3" />
<line x1="110" y1="-440" x2="230" y2="-320" stroke="rgba(59,94,138,0.5)" stroke-width="0.3" />
<line x1="110" y1="-446" x2="230" y2="-326" stroke="rgba(59,94,138,0.5)" stroke-width="0.3" />
<line x1="110" y1="-452" x2="230" y2="-332" stroke="rgba(59,94,138,0.5)" stroke-width="0.3" />
<line x1="110" y1="-458" x2="230" y2="-338" stroke="rgba(59,94,138,0.5)" stroke-width="0.3" />
<line x1="110" y1="-464" x2="230" y2="-344" stroke="rgba(59,94,138,0.5)" stroke-width="0.3" />
<line x1="110" y1="-470" x2="230" y2="-350" stroke="rgba(59,94,138,0.5)" stroke-width="0.3" />
<line x1="110" y1="-476" x2="230" y2="-356" stroke="rgba(59,94,138,0.5)" stroke-width="0.3" />
<line x1="110" y1="-482" x2="230" y2="-362" stroke="rgba(59,94,138,0.5)" stroke-width="0.3" />
<line x1="110" y1="-488" x2="230" y2="-368" stroke="rgba(59,94,138,0.5)" stroke-width="0.3" />
<line x1="110" y1="-494" x2="230" y2="-374" stroke="rgba(59,94,138,0.5)" stroke-width="0.3" />
<line x1="110" y1="-500" x2="230" y2="-380" stroke="rgba(59,94,138,0.5)" stroke-width="0.3" />
<line x1="110" y1="-506" x2="230" y2="-386" stroke="rgba(59,94,138,0.5)" stroke-width="0.3" />
<line x1="110" y1="-512" x2="230" y2="-392" stroke="rgba(59,94,138,0.5)" stroke-width="0.3" />
<line x1="110" y1="-518" x2="230" y2="-398" stroke="rgba(59,94,138,0.5)" stroke-width="0.3" />
<line x1="110" y1="-524" x2="230" y2="-404" stroke="rgba(59,94,138,0.5)" stroke-width="0.3" />
<line x1="110" y1="-530" x2="230" y2="-410" stroke="rgba(59,94,138,0.5)" stroke-width="0.3" />
<line x1="110" y1="-536" x2="230" y2="-416" stroke="rgba(59,94,138,0.5)" stroke-width="0.3" />
<line x1="110" y1="-542" x2="230" y2="-422" stroke="rgba(59,94,138,0.5)" stroke-width="0.3" />
<line x1="110" y1="-548" x2="230" y2="-428" stroke="rgba(59,94,138,0.5)" stroke-width="0.3" />
<line x1="110" y1="-554" x2="230" y2="-434" stroke="rgba(59,94,138,0.5)" stroke-width="0.3" />
<line x1="110" y1="-560" x2="230" y2="-440" stroke="rgba(59,94,138,0.5)" stroke-width="0.3" />
<line x1="110" y1="-566" x2="230" y2="-446" stroke="rgba(59,94,138,0.5)" stroke-width="0.3" />
<line x1="110" y1="-572" x2="230" y2="-452" stroke="rgba(59,94,138,0.5)" stroke-width="0.3" />
<line x1="110" y1="-578" x2="230" y2="-458" stroke="rgba(59,94,138,0.5)" stroke-width="0.3" />
<line x1="110" y1="-584" x2="230" y2="-464" stroke="rgba(59,94,138,0.5)" stroke-width="0.3" />
<line x1="110" y1="-590" x2="230" y2="-470" stroke="rgba(59,94,138,0.5)" stroke-width="0.3" />
<line x1="110" y1="-596" x2="230" y2="-476" stroke="rgba(59,94,138,0.5)" stroke-width="0.3" />
<line x1="110" y1="-602" x2="230" y2="-482" stroke="rgba(59,94,138,0.5)" stroke-width="0.3" />
<line x1="110" y1="-608" x2="230" y2="-488" stroke="rgba(59,94,138,0.5)" stroke-width="0.3" />
<line x1="110" y1="-614" x2="230" y2="-494" stroke="rgba(59,94,138,0.5)" stroke-width="0.3" />
<line x1="110" y1="-620" x2="230" y2="-500" stroke="rgba(59,94,138,0.5)" stroke-width="0.3" />
<line x1="110" y1="-626" x2="230" y2="-506" stroke="rgba(59,94,138,0.5)" stroke-width="0.3" />
<line x1="110" y1="-632" x2="230" y2="-512" stroke="rgba(59,94,138,0.5)" stroke-width="0.3" />
<line x1="110" y1="-638" x2="230" y2="-518" stroke="rgba(59,94,138,0.5)" stroke-width="0.3" />
<line x1="110" y1="-644" x2="230" y2="-524" stroke="rgba(59,94,138,0.5)" stroke-width="0.3" />
<line x1="110" y1="-650" x2="230" y2="-530" stroke="rgba(59,94,138,0.5)" stroke-width="0.3" />
<line x1="110" y1="-656" x2="230" y2="-536" stroke="rgba(59,94,138,0.5)" stroke-width="0.3" />
<line x1="110" y1="-662" x2="230" y2="-542" stroke="rgba(59,94,138,0.5)" stroke-width="0.3" />
<line x1="110" y1="-668" x2="230" y2="-548" stroke="rgba(59,94,138,0.5)" stroke-width="0.3" />
<line x1="110" y1="-674" x2="230" y2="-554" stroke="rgba(59,94,138,0.5)" stroke-width="0.3" />
<line x1="110" y1="-680" x2="230" y2="-560" stroke="rgba(59,94,138,0.5)" stroke-width="0.3" />
<line x1="110" y1="-686" x2="230" y2="-566" stroke="rgba(59,94,138,0.5)" stroke-width="0.3" />
<line x1="110" y1="-692" x2="230" y2="-572" stroke="rgba(59,94,138,0.5)" stroke-width="0.3" />
<line x1="110" y1="-698" x2="230" y2="-578" stroke="rgba(59,94,138,0.5)" stroke-width="0.3" />
<line x1="110" y1="-704" x2="230" y2="-584" stroke="rgba(59,94,138,0.5)" stroke-width="0.3" />
<line x1="110" y1="-710" x2="230" y2="-590" stroke="rgba(59,94,138,0.5)" stroke-width="0.3" />
<line x1="110" y1="-716" x2="230" y2="-596" stroke="rgba(59,94,138,0.5)" stroke-width="0.3" />
<line x1="110" y1="-722" x2="230" y2="-602" stroke="rgba(59,94,138,0.5)" stroke-width="0.3" />
<line x1="110" y1="-728" x2="230" y2="-608" stroke="rgba(59,94,138,0.5)" stroke-width="0.3" />
<line x1="110" y1="-734" x2="230" y2="-614" stroke="rgba(59,94,138,0.5)" stroke-width="0.3" />
<line x1="110" y1="-740" x2="230" y2="-620" stroke="rgba(59,94,138,0.5)" stroke-width="0.3" />
<line x1="110" y1="-746" x2="230" y2="-626" stroke="rgba(59,94,138,0.5)" stroke-width="0.3" />
<line x1="110" y1="-752" x2="230" y2="-632" stroke="rgba(59,94,138,0.5)" stroke-width="0.3" />
<line x1="110" y1="-758" x2="230" y2="-638" stroke="rgba(59,94,138,0.5)" stroke-width="0.3" />
<line x1="110" y1="-764" x2="230" y2="-644" stroke="rgba(59,94,138,0.5)" stroke-width="0.3" />
<line x1="110" y1="-770" x2="230" y2="-650" stroke="rgba(59,94,138,0.5)" stroke-width="0.3" />
<line x1="110" y1="-776" x2="230" y2="-656" stroke="rgba(59,94,138,0.5)" stroke-width="0.3" />
<line x1="110" y1="-782" x2="230" y2="-662" stroke="rgba(59,94,138,0.5)" stroke-width="0.3" />
<line x1="110" y1="-788" x2="230" y2="-668" stroke="rgba(59,94,138,0.5)" stroke-width="0.3" />
<line x1="110" y1="-794" x2="230" y2="-674" stroke="rgba(59,94,138,0.5)" stroke-width="0.3" />
<line x1="110" y1="-800" x2="230" y2="-680" stroke="rgba(59,94,138,0.5)" stroke-width="0.3" />
<line x1="110" y1="-806" x2="230" y2="-686" stroke="rgba(59,94,138,0.5)" stroke-width="0.3" />
<line x1="110" y1="-812" x2="230" y2="-692" stroke="rgba(59,94,138,0.5)" stroke-width="0.3" />
<line x1="110" y1="-818" x2="230" y2="-698" stroke="rgba(59,94,138,0.5)" stroke-width="0.3" />
<line x1="110" y1="-824" x2="230" y2="-704" stroke="rgba(59,94,138,0.5)" stroke-width="0.3" />
<line x1="110" y1="-830" x2="230" y2="-710" stroke="rgba(59,94,138,0.5)" stroke-width="0.3" />
<line x1="110" y1="-836" x2="230" y2="-716" stroke="rgba(59,94,138,0.5)" stroke-width="0.3" />
<line x1="110" y1="-842" x2="230" y2="-722" stroke="rgba(59,94,138,0.5)" stroke-width="0.3" />
<line x1="110" y1="-848" x2="230" y2="-728" stroke="rgba(59,94,138,0.5)" stroke-width="0.3" />
<line x1="110" y1="-854" x2="230" y2="-734" stroke="rgba(59,94,138,0.5)" stroke-width="0.3" />
<line x1="110" y1="-860" x2="230" y2="-740" stroke="rgba(59,94,138,0.5)" stroke-width="0.3" />
<line x1="110" y1="-866" x2="230" y2="-746" stroke="rgba(59,94,138,0.5)" stroke-width="0.3" />
<line x1="110" y1="-872" x2="230" y2="-752" stroke="rgba(59,94,138,0.5)" stroke-width="0.3" />
<line x1="110" y1="-878" x2="230" y2="-758" stroke="rgba(59,94,138,0.5)" stroke-width="0.3" />
<line x1="110" y1="-884" x2="230" y2="-764" stroke="rgba(59,94,138,0.5)" stroke-width="0.3" />
<line x1="110" y1="-890" x2="230" y2="-770" stroke="rgba(59,94,138,0.5)" stroke-width="0.3" />
<line x1="110" y1="-896" x2="230" y2="-776" stroke="rgba(59,94,138,0.5)" stroke-width="0.3" />
<line x1="110" y1="-902" x2="230" y2="-782" stroke="rgba(59,94,138,0.5)" stroke-width="0.3" />
<line x1="110" y1="-908" x2="230" y2="-788" stroke="rgba(59,94,138,0.5)" stroke-width="0.3" />
<line x1="110" y1="-914" x2="230" y2="-794" stroke="rgba(59,94,138,0.5)" stroke-width="0.3" />
<line x1="110" y1="-920" x2="230" y2="-800" stroke="rgba(59,94,138,0.5)" stroke-width="0.3" />
<line x1="110" y1="-926" x2="230" y2="-806" stroke="rgba(59,94,138,0.5)" stroke-width="0.3" />
<line x1="110" y1="-932" x2="230" y2="-812" stroke="rgba(59,94,138,0.5)" stroke-width="0.3" />
<line x1="110" y1="-938" x2="230" y2="-818" stroke="rgba(59,94,138,0.5)" stroke-width="0.3" />
<line x1="110" y1="-944" x2="230" y2="-824" stroke="rgba(59,94,138,0.5)" stroke-width="0.3" />
<line x1="110" y1="-950" x2="230" y2="-830" stroke="rgba(59,94,138,0.5)" stroke-width="0.3" />
<line x1="110" y1="-956" x2="230" y2="-836" stroke="rgba(59,94,138,0.5)" stroke-width="0.3" />
<line x1="110" y1="-962" x2="230" y2="-842" stroke="rgba(59,94,138,0.5)" stroke-width="0.3" />
<line x1="110" y1="-968" x2="230" y2="-848" stroke="rgba(59,94,138,0.5)" stroke-width="0.3" />
<line x1="110" y1="-974" x2="230" y2="-854" stroke="rgba(59,94,138,0.5)" stroke-width="0.3" />
<line x1="110" y1="-980" x2="230" y2="-860" stroke="rgba(59,94,138,0.5)" stroke-width="0.3" />
<line x1="110" y1="-986" x2="230" y2="-866" stroke="rgba(59,94,138,0.5)" stroke-width="0.3" />
<line x1="110" y1="-992" x2="230" y2="-872" stroke="rgba(59,94,138,0.5)" stroke-width="0.3" />
<line x1="110" y1="-998" x2="230" y2="-878" stroke="rgba(59,94,138,0.5)" stroke-width="0.3" />
<line x1="110" y1="-1004" x2="230" y2="-884" stroke="rgba(59,94,138,0.5)" stroke-width="0.3" />
<line x1="110" y1="-1010" x2="230" y2="-890" stroke="rgba(59,94,138,0.5)" stroke-width="0.3" />
<line x1="110" y1="-1016" x2="230" y2="-896" stroke="rgba(59,94,138,0.5)" stroke-width="0.3" />
<line x1="110" y1="-1022" x2="230" y2="-902" stroke="rgba(59,94,138,0.5)" stroke-width="0.3" />
<line x1="110" y1="-1028" x2="230" y2="-908" stroke="rgba(59,94,138,0.5)" stroke-width="0.3" />
<line x1="110" y1="-1034" x2="230" y2="-914" stroke="rgba(59,94,138,0.5)" stroke-width="0.3" />
<line x1="110" y1="-1040" x2="230" y2="-920" stroke="rgba(59,94,138,0.5)" stroke-width="0.3" />
<line x1="110" y1="-1046" x2="230" y2="-926" stroke="rgba(59,94,138,0.5)" stroke-width="0.3" />
<line x1="110" y1="-1052" x2="230" y2="-932" stroke="rgba(59,94,138,0.5)" stroke-width="0.3" />
<line x1="110" y1="-1058" x2="230" y2="-938" stroke="rgba(59,94,138,0.5)" stroke-width="0.3" />
<line x1="110" y1="-1064" x2="230" y2="-944" stroke="rgba(59,94,138,0.5)" stroke-width="0.3" />
<line x1="110" y1="-1070" x2="230" y2="-950" stroke="rgba(59,94,138,0.5)" stroke-width="0.3" />
<line x1="110" y1="-1076" x2="230" y2="-956" stroke="rgba(59,94,138,0.5)" stroke-width="0.3" />
<line x1="110" y1="-1082" x2="230" y2="-962" stroke="rgba(59,94,138,0.5)" stroke-width="0.3" />
<line x1="110" y1="-1088" x2="230" y2="-968" stroke="rgba(59,94,138,0.5)" stroke-width="0.3" />
<line x1="110" y1="-1094" x2="230" y2="-974" stroke="rgba(59,94,138,0.5)" stroke-width="0.3" />
<line x1="110" y1="-1100" x2="230" y2="-980" stroke="rgba(59,94,138,0.5)" stroke-width="0.3" />
<line x1="116" y1="-1100" x2="230" y2="-986" stroke="rgba(59,94,138,0.5)" stroke-width="0.3" />
<line x1="122" y1="-1100" x2="230" y2="-992" stroke="rgba(59,94,138,0.5)" stroke-width="0.3" />
<line x1="128" y1="-1100" x2="230" y2="-998" stroke="rgba(59,94,138,0.5)" stroke-width="0.3" />
<line x1="134" y1="-1100" x2="230" y2="-1004" stroke="rgba(59,94,138,0.5)" stroke-width="0.3" />
<line x1="140" y1="-1100" x2="230" y2="-1010" stroke="rgba(59,94,138,0.5)" stroke-width="0.3" />
<line x1="146" y1="-1100" x2="230" y2="-1016" stroke="rgba(59,94,138,0.5)" stroke-width="0.3" />
<line x1="152" y1="-1100" x2="230" y2="-1022" stroke="rgba(59,94,138,0.5)" stroke-width="0.3" />
<line x1="158" y1="-1100" x2="230" y2="-1028" stroke="rgba(59,94,138,0.5)" stroke-width="0.3" />
<line x1="164" y1="-1100" x2="230" y2="-1034" stroke="rgba(59,94,138,0.5)" stroke-width="0.3" />
<line x1="170" y1="-1100" x2="230" y2="-1040" stroke="rgba(59,94,138,0.5)" stroke-width="0.3" />
<line x1="176" y1="-1100" x2="230" y2="-1046" stroke="rgba(59,94,138,0.5)" stroke-width="0.3" />
<line x1="182" y1="-1100" x2="230" y2="-1052" stroke="rgba(59,94,138,0.5)" stroke-width="0.3" />
<line x1="188" y1="-1100" x2="230" y2="-1058" stroke="rgba(59,94,138,0.5)" stroke-width="0.3" />
<line x1="194" y1="-1100" x2="230" y2="-1064" stroke="rgba(59,94,138,0.5)" stroke-width="0.3" />
<line x1="200" y1="-1100" x2="230" y2="-1070" stroke="rgba(59,94,138,0.5)" stroke-width="0.3" />
<line x1="206" y1="-1100" x2="230" y2="-1076" stroke="rgba(59,94,138,0.5)" stroke-width="0.3" />
<line x1="212" y1="-1100" x2="230" y2="-1082" stroke="rgba(59,94,138,0.5)" stroke-width="0.3" />
<line x1="218" y1="-1100" x2="230" y2="-1088" stroke="rgba(59,94,138,0.5)" stroke-width="0.3" />
<line x1="224" y1="-1100" x2="230" y2="-1094" stroke="rgba(59,94,138,0.5)" stroke-width="0.3" />
<text x="170" y="-650" fill="#666" font-family="system-ui" font-size="7" text-anchor="middle" dominant-baseline="central">PL 10</text>
<circle cx="120" cy="-200" r="9.25" fill="rgba(26,26,26,0.18)" stroke="none" opacity="0.3" />
<circle cx="120" cy="-200" r="9.25" fill="none" stroke="#1a1a1a" stroke-width="0.65"  />
<circle cx="120" cy="-200" r="7" fill="none" stroke="#1a1a1a" stroke-width="0.3" stroke-dasharray="5,3" />
<circle cx="120" cy="-200" r="6" fill="none" stroke="rgba(26,26,26,0.5)" stroke-width="0.3" stroke-dasharray="5,3" />
<circle cx="220" cy="-200" r="9.25" fill="rgba(26,26,26,0.18)" stroke="none" opacity="0.3" />
<circle cx="220" cy="-200" r="9.25" fill="none" stroke="#1a1a1a" stroke-width="0.65"  />
<circle cx="220" cy="-200" r="7" fill="none" stroke="#1a1a1a" stroke-width="0.3" stroke-dasharray="5,3" />
<circle cx="220" cy="-200" r="6" fill="none" stroke="rgba(26,26,26,0.5)" stroke-width="0.3" stroke-dasharray="5,3" />
<circle cx="120" cy="-260" r="9.25" fill="rgba(26,26,26,0.18)" stroke="none" opacity="0.3" />
<circle cx="120" cy="-260" r="9.25" fill="none" stroke="#1a1a1a" stroke-width="0.65"  />
<circle cx="120" cy="-260" r="7" fill="none" stroke="#1a1a1a" stroke-width="0.3" stroke-dasharray="5,3" />
<circle cx="120" cy="-260" r="6" fill="none" stroke="rgba(26,26,26,0.5)" stroke-width="0.3" stroke-dasharray="5,3" />
<circle cx="220" cy="-260" r="9.25" fill="rgba(26,26,26,0.18)" stroke="none" opacity="0.3" />
<circle cx="220" cy="-260" r="9.25" fill="none" stroke="#1a1a1a" stroke-width="0.65"  />
<circle cx="220" cy="-260" r="7" fill="none" stroke="#1a1a1a" stroke-width="0.3" stroke-dasharray="5,3" />
<circle cx="220" cy="-260" r="6" fill="none" stroke="rgba(26,26,26,0.5)" stroke-width="0.3" stroke-dasharray="5,3" />
<circle cx="120" cy="-320" r="9.25" fill="rgba(26,26,26,0.18)" stroke="none" opacity="0.3" />
<circle cx="120" cy="-320" r="9.25" fill="none" stroke="#1a1a1a" stroke-width="0.65"  />
<circle cx="120" cy="-320" r="7" fill="none" stroke="#1a1a1a" stroke-width="0.3" stroke-dasharray="5,3" />
<circle cx="120" cy="-320" r="6" fill="none" stroke="rgba(26,26,26,0.5)" stroke-width="0.3" stroke-dasharray="5,3" />
<circle cx="220" cy="-320" r="9.25" fill="rgba(26,26,26,0.18)" stroke="none" opacity="0.3" />
<circle cx="220" cy="-320" r="9.25" fill="none" stroke="#1a1a1a" stroke-width="0.65"  />
<circle cx="220" cy="-320" r="7" fill="none" stroke="#1a1a1a" stroke-width="0.3" stroke-dasharray="5,3" />
<circle cx="220" cy="-320" r="6" fill="none" stroke="rgba(26,26,26,0.5)" stroke-width="0.3" stroke-dasharray="5,3" />
</svg>